<svg width="80" height="80" viewBox="0 0 80 80" fill="none" xmlns="http://www.w3.org/2000/svg">
<path d="M76.25 69.9999C66.25 69.9999 58.033 62.8462 53.4942 55.0002H26.5058C21.967 62.8462 13.75 69.9999 3.75 69.9999H76.25Z" fill="#001419"/>
<path d="M37.3755 55C36.8033 60.9665 34.1837 66.1239 30.2344 70H52.2656C48.3163 66.1239 45.6967 60.9665 45.1245 55H37.3755Z" fill="#001419"/>
<path d="M52.5249 55C52.5249 67.5 22.093 69.0308 10.9138 69.0308C8.54488 69.6611 6.42599 70 3.76758 70H76.2334C66.2334 70 58.0329 62.8459 53.4941 55H52.5249Z" fill="#001419"/>
<path d="M65 35C65 48.8071 53.8071 60 40 60C26.1929 60 15 48.8071 15 35C15 21.1929 26.1929 10 40 10C53.8071 10 65 21.1929 65 35Z" fill="#FFD533"/>
<path d="M56.2549 16.0181C60.2684 20.5717 62.4882 26.4301 62.5 32.5C62.5 46.3071 51.3071 57.5 37.5 57.5C31.5374 57.4966 25.7724 55.3622 21.2451 51.4819C25.9822 56.8845 32.8148 59.9877 40 60C53.8071 60 65 48.8071 65 35C64.9964 27.6993 61.8017 20.7649 56.2549 16.0181Z" fill="#FFD533"/>
<path d="M64.0837 2.50337C63.7833 2.52677 63.5015 2.65784 63.2901 2.87247L57.1078 9.0548C56.8305 9.33367 56.7006 9.72677 56.7571 10.1159L57.6337 16.3075C57.7122 16.8578 58.1446 17.2902 58.6949 17.3687L64.8864 18.2453C65.2756 18.3018 65.6687 18.1719 65.9476 17.8946L72.1299 11.7031C72.8611 10.9705 72.4362 9.71745 71.4102 9.58076L66.1967 8.89793L65.4124 3.57375C65.3197 2.92317 64.7391 2.45547 64.0837 2.50337Z" fill="#FFCA28"/>
<path d="M57.5 35C57.5 44.665 49.665 52.5 40 52.5C30.335 52.5 22.5 44.665 22.5 35C22.5 25.335 30.335 17.5 40 17.5C49.665 17.5 57.5 25.335 57.5 35Z" fill="white"/>
<path d="M51.0615 21.4551C53.6053 24.5743 54.9961 28.475 54.9995 32.5C54.9995 42.165 47.1645 50 37.4995 50C33.4666 49.9957 29.559 48.5985 26.4375 46.0449C29.758 50.1258 34.7384 52.4963 39.9995 52.5C49.6645 52.5 57.4995 44.665 57.4995 35C57.4949 29.7477 55.1314 24.7752 51.0615 21.4551Z" fill="white"/>
<path d="M50 35C50 40.5228 45.5228 45 40 45C34.4772 45 30 40.5228 30 35C30 29.4772 34.4772 25 40 25C45.5228 25 50 29.4772 50 35Z" fill="#42E26F"/>
<path d="M45.6865 26.7749C46.8635 28.4523 47.4967 30.4509 47.5005 32.5C47.5005 38.0228 43.0233 42.5 37.5005 42.5C35.4689 42.4997 33.4855 41.8806 31.8145 40.7251C33.6824 43.4002 36.7378 44.9958 40.0005 45C45.5233 45 50.0005 40.5228 50.0005 35C50.0002 31.7163 48.3877 28.642 45.6865 26.7749Z" fill="#42E26F"/>
<path d="M10 77.4998C24.4975 77.4998 36.25 66.9974 36.25 52.4999L30 52.4998L40 41.2499L50 52.4998L43.75 52.4999C43.75 66.9974 55.5025 77.4998 70 77.4998H10Z" fill="#42E26F"/>
<path d="M42.1704 43.6914C42.1704 70 37.5 77.2843 10 77.5H70C55.5025 77.5 43.75 66.9975 43.75 52.5H50L42.1704 43.6914Z" fill="#42E26F"/>
<path d="M67.1235 6.66307C66.7992 6.67304 66.4914 6.8087 66.2653 7.04139L39.115 34.1136C37.9322 35.2929 39.7039 37.0646 40.8867 35.8852L68.037 8.81305C68.8642 8.01691 68.2707 6.62026 67.1235 6.66307Z" fill="#001419"/>
</svg>
