<svg width="64" height="74" viewBox="0 0 64 74" fill="none" xmlns="http://www.w3.org/2000/svg">
<path d="M2.9573 40.5739C3.86729 40.9585 4.45059 41.8429 4.45059 42.8298V44.7332C3.8481 45.7138 4.16858 46.4187 4.67484 46.9378C5.43104 47.63 5.6297 48.7195 5.47591 49.7321C5.39906 50.3088 5.47591 50.9946 6.14885 51.2829C7.52673 51.9238 6.9756 54.0131 6.9756 54.0131C4.50186 59.9219 8.73162 61.8766 11.0131 62.274C12.3526 62.4854 15.6018 62.4086 17.5116 62.3381C18.3896 62.306 18.9856 62.274 18.9856 62.274C20.7993 61.9215 22.0105 62.2292 22.8053 62.8316C24.6637 64.2222 24.3242 67.2087 24.3242 67.2087C24.3083 67.3599 23.6498 73.6262 23.6916 73.2284H49.2884C49.3193 61.2628 54.2869 54.6021 58.2328 48.367C61.3924 43.4836 63.2445 37.5938 63.2445 31.2749C63.2445 14.4032 50.1601 0.775513 34.0782 0.775513C25.5104 0.775513 17.932 4.87878 13.7176 9.50426C7.41278 16.321 7.90924 23.6339 7.60368 25.5903C7.46907 26.4747 7.03966 28.4998 6.41807 29.1214C3.11109 32.3899 1.53455 36.0621 0.983419 37.0363C0.81683 37.2862 0.733487 37.7284 0.765564 38.0104C1.04108 39.4268 2.0537 40.1894 2.9573 40.5739Z" fill="#42E26F"/>
<path d="M27.7291 67.2055C27.7129 67.3566 27.0406 73.6196 27.0833 73.2218H23.6842C23.7004 73.0707 24.3727 66.8077 24.33 67.2055C24.33 67.2055 24.6699 64.2142 22.8004 62.8376C22.5115 62.6166 22.1715 62.4297 21.7637 62.3107C22.1546 62.2937 22.3925 62.2767 22.3925 62.2767C24.194 61.9199 25.4178 62.2258 26.1995 62.8376C28.0691 64.2142 27.7291 67.2055 27.7291 67.2055Z" fill="#001419"/>
<path d="M16.0993 11.9509C11.8227 18.0284 12.2311 23.6883 11.9372 25.5968C11.8102 26.4705 11.3813 28.5038 10.7617 29.1234C7.44163 32.3958 5.86896 36.0654 5.3288 37.0344C5.15408 37.2887 5.07467 37.7334 5.10638 38.0035C5.37641 39.4332 6.39312 40.1958 7.29862 40.577C8.20411 40.9582 8.79187 41.8478 8.79187 42.8328V44.7391C8.18821 45.7081 8.50594 46.4229 9.0143 46.9313C9.77678 47.6303 9.9674 48.7264 9.80858 49.7272C9.72918 50.315 9.80858 50.998 10.4917 51.284C11.8578 51.9193 11.3177 54.0163 11.3177 54.0163C8.83958 59.9258 13.0651 61.8797 15.3527 62.2768C15.6545 62.3246 16.0517 62.3563 16.5123 62.3722C14.6219 62.4199 12.1437 62.4516 11.0159 62.2768C8.72837 61.8797 4.50271 59.9258 6.98088 54.0163C6.98088 54.0163 7.52104 51.9193 6.15489 51.284C5.47182 50.998 5.39231 50.315 5.47182 49.7272C5.63063 48.7264 5.42411 47.6303 4.67753 46.9313C4.16918 46.4229 3.85144 45.7081 4.45511 44.7391V42.8328C4.45511 41.8478 3.86734 40.9582 2.96185 40.577C2.05635 40.1958 1.03964 39.4332 0.769612 38.0035C0.737809 37.7334 0.817218 37.2887 0.976134 37.0344C1.53209 36.0654 3.10476 32.3958 6.42492 29.1234C7.04449 28.5038 7.47333 26.4705 7.60045 25.5968C8.58787 19.1748 8.71049 10.893 20.3884 4.35761C25.5019 1.49245 31.403 0.443344 35.6705 0.830933C35.8611 0.846834 36.0676 0.846834 36.2582 0.878637C27.7486 1.49812 20.0043 6.25278 16.0993 11.9509Z" fill="#001419"/>
<path d="M33.8453 26.8236L32.0898 26.1267C31.9973 26.089 31.9795 26.0519 31.9606 26.0333C31.9429 25.9775 31.9432 25.922 31.9618 25.8479L32.7884 24.1487C32.9948 23.7054 32.9055 23.186 32.5745 22.8134L30.5502 20.7251C30.2006 20.3708 29.7008 20.2934 29.2366 20.4572L27.4896 21.224C27.4338 21.2422 27.3597 21.2417 27.3417 21.223C27.3046 21.2228 27.2308 21.1668 27.2311 21.1111L26.5755 19.3281C26.4306 18.864 25.9696 18.5275 25.4879 18.5244L22.5976 18.4871C22.0973 18.4838 21.6508 18.7775 21.4623 19.2394L20.7842 20.9952C20.7651 21.0692 20.6908 21.0872 20.6536 21.1055C20.6536 21.1055 20.5793 21.1236 20.4867 21.1045L18.7876 20.2782C18.3443 20.0714 17.8064 20.1607 17.4523 20.4918L15.3642 22.5163C15.0096 22.8661 14.8953 23.4027 15.0961 23.8301L15.8628 25.5767C15.8995 25.6325 15.8805 25.7066 15.8618 25.725C15.8616 25.762 15.806 25.8173 15.7132 25.8352L13.9672 26.4538C13.5028 26.6361 13.185 27.0972 13.1634 27.5603L13.126 30.4689C13.1228 30.9691 13.4166 31.4157 13.8596 31.6039L15.6342 32.2824C15.7079 32.3014 15.7264 32.3756 15.7443 32.3943C15.763 32.4499 15.7626 32.5056 15.7433 32.561L14.917 34.2788C14.7291 34.7223 14.7813 35.2599 15.131 35.5956L17.1551 37.7024C17.5052 38.0567 18.0048 38.1712 18.4694 37.9518L20.2158 37.2036C20.2717 37.1668 20.3453 37.1859 20.3643 37.186C20.4008 37.2048 20.4746 37.2608 20.4928 37.3165L21.1299 39.0993C21.2752 39.5634 21.7363 39.8999 22.2175 39.903L25.1078 39.9403C25.6079 39.9621 26.0545 39.6686 26.2429 39.2067L26.9212 37.4323C26.9402 37.3584 27.0147 37.3218 27.0332 37.3219C27.0519 37.3035 27.1446 37.3041 27.2001 37.323L28.9177 38.1494C29.3612 38.3375 29.8805 38.2668 30.2531 37.9357L32.3416 35.9111C32.6957 35.5799 32.8105 35.0248 32.5908 34.5973L31.8426 32.8508C31.8059 32.7949 31.8249 32.721 31.8436 32.7025C31.8438 32.6655 31.8998 32.6103 31.9552 32.5736L33.7384 31.9367C34.2027 31.7729 34.5204 31.3303 34.5421 30.8487L34.5795 27.94C34.5826 27.4584 34.3073 27.0119 33.8453 26.8236ZM23.831 34.5911C20.8454 34.5717 18.456 32.1516 18.4752 29.1921C18.4946 26.2062 20.9152 23.8171 23.9008 23.8365C26.8606 23.8557 29.2494 26.276 29.23 29.2619C29.2108 32.2214 26.7908 34.6103 23.831 34.5911Z" fill="#FFD533"/>
<path d="M23.8405 32.243C22.1585 32.2321 20.8125 30.8687 20.8233 29.2015C20.8342 27.5194 22.1979 26.1735 23.8798 26.1844C25.5472 26.1952 26.8929 27.5587 26.882 29.2408C26.8712 30.908 25.5079 32.2538 23.8405 32.243Z" fill="#001419"/>
<path d="M26.758 30.0862C26.3791 31.3443 25.2091 32.2488 23.8373 32.2399C22.1616 32.229 20.8135 30.8707 20.8243 29.2024C20.8309 28.1792 21.341 27.2778 22.1157 26.7341C22.0398 27.008 21.9934 27.2895 21.9915 27.5861C21.9807 29.2544 23.3288 30.6201 25.012 30.631C25.657 30.6352 26.259 30.4315 26.758 30.0862Z" fill="#001419"/>
<path d="M50.2681 16.0543L48.7985 15.4709C48.7211 15.4393 48.7062 15.4083 48.6904 15.3926C48.6755 15.346 48.6758 15.2995 48.6914 15.2375L49.3833 13.8151C49.5561 13.444 49.4813 13.0092 49.2043 12.6973L47.5097 10.9492C47.2171 10.6526 46.7987 10.5878 46.4101 10.7249L44.9477 11.3668C44.901 11.382 44.8389 11.3816 44.8239 11.366C44.7928 11.3658 44.731 11.3189 44.7313 11.2723L44.1825 9.77976C44.0612 9.39122 43.6753 9.10955 43.272 9.10693L40.8526 9.07571C40.4338 9.07299 40.06 9.31877 39.9022 9.7055L39.3345 11.1753C39.3186 11.2372 39.2564 11.2523 39.2253 11.2676C39.2253 11.2676 39.1631 11.2827 39.0855 11.2667L37.6632 10.575C37.2921 10.402 36.8418 10.4767 36.5454 10.7539L34.7975 12.4486C34.5006 12.7414 34.4049 13.1906 34.573 13.5484L35.2148 15.0105C35.2456 15.0572 35.2296 15.1192 35.214 15.1346C35.2138 15.1655 35.1673 15.2118 35.0896 15.2268L33.628 15.7446C33.2393 15.8973 32.9732 16.2833 32.9552 16.6709L32.9239 19.1057C32.9211 19.5245 33.1671 19.8983 33.5379 20.0559L35.0235 20.6238C35.0851 20.6398 35.1006 20.7019 35.1157 20.7175C35.1313 20.7641 35.131 20.8106 35.1148 20.857L34.4231 22.295C34.2658 22.6662 34.3095 23.1163 34.6022 23.3973L36.2967 25.161C36.5897 25.4576 37.0079 25.5533 37.3968 25.3697L38.8587 24.7434C38.9055 24.7126 38.9671 24.7285 38.983 24.7286C39.0136 24.7444 39.0754 24.7912 39.0906 24.8379L39.6239 26.3303C39.7456 26.7188 40.1315 27.0005 40.5344 27.0031L42.9538 27.0343C43.3725 27.0526 43.7463 26.8069 43.9041 26.4201L44.4719 24.9348C44.4878 24.8729 44.5501 24.8423 44.5656 24.8424C44.5813 24.827 44.6589 24.8275 44.7053 24.8433L46.1432 25.5351C46.5144 25.6925 46.9491 25.6334 47.261 25.3562L49.0093 23.6614C49.3057 23.3842 49.4019 22.9195 49.2179 22.5616L48.5916 21.0996C48.5608 21.0529 48.5768 20.991 48.5924 20.9755C48.5926 20.9445 48.6395 20.8983 48.6859 20.8676L50.1786 20.3344C50.5672 20.1973 50.8332 19.8268 50.8513 19.4237L50.8827 16.9888C50.8853 16.5856 50.6548 16.2118 50.2681 16.0543ZM41.8851 22.5564C39.3858 22.5402 37.3856 20.5143 37.4017 18.0369C37.4179 15.5374 39.4442 13.5375 41.9435 13.5537C44.4211 13.5698 46.4208 15.5958 46.4046 18.0954C46.3885 20.5728 44.3627 22.5725 41.8851 22.5564Z" fill="white"/>
<path d="M41.8929 20.5909C40.485 20.5818 39.3582 19.4405 39.3672 18.0448C39.3764 16.6367 40.5179 15.5101 41.9258 15.5192C43.3216 15.5283 44.4481 16.6696 44.439 18.0777C44.4299 19.4734 43.2887 20.5999 41.8929 20.5909Z" fill="#001419"/>
<path d="M44.3354 18.7853C44.0182 19.8384 43.0387 20.5956 41.8905 20.5881C40.4877 20.579 39.3592 19.442 39.3682 18.0454C39.3738 17.1889 39.8008 16.4344 40.4493 15.9792C40.3857 16.2085 40.3469 16.4441 40.3453 16.6924C40.3363 18.089 41.4648 19.2322 42.8737 19.2414C43.4137 19.2449 43.9176 19.0743 44.3354 18.7853Z" fill="#001419"/>
<path d="M50.4307 46.8962C50.4307 48.3452 49.2534 49.5075 47.8043 49.5075H16.1967C14.7477 49.5075 13.5703 48.3452 13.5703 46.8962C13.5703 45.4471 14.7477 44.2698 16.1967 44.2698H47.8043C49.2534 44.2698 50.4307 45.4471 50.4307 46.8962Z" fill="#001419"/>
<path d="M39.8646 46.8962C39.8646 48.3452 38.6873 49.5075 37.2382 49.5075H16.1967C14.7477 49.5075 13.5703 48.3452 13.5703 46.8962C13.5703 45.4471 14.7477 44.2698 16.1967 44.2698H37.2382C38.6873 44.2698 39.8646 45.4471 39.8646 46.8962Z" fill="white"/>
</svg>
