<svg width="80" height="80" viewBox="0 0 80 80" fill="none" xmlns="http://www.w3.org/2000/svg">
<path d="M47.3751 29.925C46.8115 24.8679 44.5421 20.1537 40.9406 16.5591C37.3392 12.9645 32.6207 10.704 27.5626 10.15C26.7121 10.0497 25.8564 9.99966 25.0001 10C24.1646 10.0025 23.3299 10.0526 22.5001 10.15C17.4307 10.6906 12.6977 12.9452 9.08369 16.541C5.46971 20.1368 3.19124 24.8584 2.62506 29.925C2.29947 32.904 2.58732 35.9181 3.47088 38.7816C4.35445 41.6451 5.815 44.2974 7.76256 46.575C11.3915 51.117 13.4877 56.6922 13.7501 62.5V66.25C13.7501 66.5815 13.8818 66.8995 14.1162 67.1339C14.3506 67.3683 14.6685 67.5 15.0001 67.5H35.0001C35.3316 67.5 35.6495 67.3683 35.8839 67.1339C36.1184 66.8995 36.2501 66.5815 36.2501 66.25V62.5C36.5124 56.6922 38.6086 51.117 42.2376 46.575C44.1851 44.2974 45.6457 41.6451 46.5292 38.7816C47.4128 35.9181 47.7006 32.904 47.3751 29.925Z" fill="#FFD533"/>
<path d="M30.0002 60V40H32.5002V37.5H28.7502C28.4187 37.5 28.1007 37.6317 27.8663 37.8661C27.6319 38.1005 27.5002 38.4185 27.5002 38.75V60H26.2502V30C26.2502 29.6685 26.1185 29.3505 25.8841 29.1161C25.6497 28.8817 25.3317 28.75 25.0002 28.75H21.2502V31.25H23.7502V60H22.5002V41.25C22.5002 40.9185 22.3685 40.6005 22.1341 40.3661C21.8997 40.1317 21.5817 40 21.2502 40H17.5002V42.5H20.0002V60H13.5752C13.6873 60.8287 13.7457 61.6638 13.7502 62.5V66.25C13.7502 66.5815 13.8819 66.8995 14.1163 67.1339C14.3507 67.3683 14.6687 67.5 15.0002 67.5H35.0002C35.3317 67.5 35.6497 67.3683 35.8841 67.1339C36.1185 66.8995 36.2502 66.5815 36.2502 66.25V62.5C36.2565 61.6624 36.3275 60.8266 36.4627 60H30.0002Z" fill="#001419"/>
<path d="M48.75 35C56.3439 35 62.5 28.8439 62.5 21.25C62.5 13.6561 56.3439 7.5 48.75 7.5C41.1561 7.5 35 13.6561 35 21.25C35 28.8439 41.1561 35 48.75 35Z" fill="#42E26F"/>
<path d="M16.25 70H33.75V72.5H16.25V70Z" fill="#001419"/>
<path d="M18.75 75H31.25V77.5H18.75V75Z" fill="#001419"/>
<path d="M48.7498 23.75C48.5853 23.751 48.4222 23.7195 48.2699 23.6573C48.1176 23.5951 47.9791 23.5034 47.8623 23.3875L44.1123 19.6375L45.8873 17.8625L48.7498 20.7375L54.1123 15.3625L55.8873 17.1375L49.6373 23.3875C49.5205 23.5034 49.382 23.5951 49.2297 23.6573C49.0774 23.7195 48.9143 23.751 48.7498 23.75Z" fill="white"/>
<path d="M77.0002 6.5L72.0002 2.75C71.8145 2.61072 71.5937 2.5259 71.3625 2.50505C71.1313 2.4842 70.8989 2.52815 70.6912 2.63197C70.4836 2.73578 70.309 2.89537 70.1869 3.09284C70.0649 3.29031 70.0003 3.51786 70.0003 3.75V6.25H48.7503C45.414 6.25147 42.1734 7.36515 39.5411 9.4149C36.9087 11.4647 35.0349 14.3335 34.2159 17.5677C33.3968 20.8019 33.6794 24.2168 35.0189 27.2723C36.3584 30.3279 38.6783 32.8497 41.6118 34.4389C44.5452 36.0281 47.9248 36.594 51.2159 36.0471C54.507 35.5001 57.5219 33.8716 59.7837 31.419C62.0454 28.9665 63.425 25.8298 63.7042 22.5053C63.9834 19.1807 63.1463 15.8579 61.3253 13.0625L59.2253 14.4375C60.3116 16.1076 60.9765 18.0164 61.1628 20H57.5003V22.5H61.2503C60.9732 25.3898 59.6989 28.0931 57.6461 30.1459C55.5934 32.1987 52.8901 33.4729 50.0003 33.75V30H47.5003V33.75C44.6216 33.4593 41.933 32.179 39.8929 30.1274C37.8527 28.0759 36.5874 25.3802 36.3128 22.5H40.0003V20H36.3128C36.6035 17.1214 37.8838 14.4328 39.9353 12.3926C41.9868 10.3525 44.6826 9.08718 47.5628 8.8125V12.5625H50.0628V8.75H70.0003V11.25C70.0009 11.4808 70.0656 11.707 70.1869 11.9033C70.3083 12.0997 70.4816 12.2586 70.6878 12.3625C70.8953 12.4678 71.1281 12.5131 71.36 12.4932C71.5919 12.4733 71.8136 12.3891 72.0002 12.25L77.0002 8.5C77.1555 8.38357 77.2815 8.23259 77.3683 8.05902C77.4551 7.88545 77.5003 7.69406 77.5003 7.5C77.5003 7.30594 77.4551 7.11455 77.3683 6.94098C77.2815 6.76741 77.1555 6.61643 77.0002 6.5Z" fill="#001419"/>
<path d="M17.5 37.5375H12.5C11.8096 37.5375 11.25 38.0971 11.25 38.7875V43.7875C11.25 44.4778 11.8096 45.0375 12.5 45.0375H17.5C18.1904 45.0375 18.75 44.4778 18.75 43.7875V38.7875C18.75 38.0971 18.1904 37.5375 17.5 37.5375Z" fill="#42E26F"/>
<path d="M21.25 26.2875H16.25C15.5596 26.2875 15 26.8471 15 27.5375V32.5375C15 33.2278 15.5596 33.7875 16.25 33.7875H21.25C21.9404 33.7875 22.5 33.2278 22.5 32.5375V27.5375C22.5 26.8471 21.9404 26.2875 21.25 26.2875Z" fill="#42E26F"/>
<path d="M37.5 35H32.5C31.8096 35 31.25 35.5596 31.25 36.25V41.25C31.25 41.9404 31.8096 42.5 32.5 42.5H37.5C38.1904 42.5 38.75 41.9404 38.75 41.25V36.25C38.75 35.5596 38.1904 35 37.5 35Z" fill="#42E26F"/>
</svg>
