<svg width="32" height="28" viewBox="0 0 32 28" fill="none" xmlns="http://www.w3.org/2000/svg">
<path d="M31.0588 25.2941C31.5786 25.2941 32 25.7155 32 26.2353C32 26.7551 31.5786 27.1765 31.0588 27.1765H0.941188C0.421375 27.1765 0 26.7551 0 26.2353C0 25.7155 0.421375 25.2941 0.941188 25.2941H31.0588ZM4.70587 8.35292H13.1764C13.6962 8.35292 14.1176 8.7743 14.1176 9.29411V23.4117H3.76469V9.29411C3.76469 8.7743 4.18606 8.35292 4.70587 8.35292ZM18.8235 0.823486H27.2941C27.8139 0.823486 28.2353 1.24486 28.2353 1.76467V23.4117H17.8824V1.76467C17.8824 1.24492 18.3037 0.823486 18.8235 0.823486Z" fill="#42E26F"/>
</svg>
