<svg width="28" height="26" viewBox="0 0 28 26" fill="none" xmlns="http://www.w3.org/2000/svg">
<path d="M27.461 5.296C27.799 5.781 28 6.367 28 7V23C28 24.65 26.65 26 25 26H3C1.35 26 0 24.65 0 23V7C0 6.367 0.201 5.781 0.539 5.296L4.575 11.664C5.133 12.5 6.066 13 7.071 13H10.185C10.599 14.161 11.699 15 13.001 15H15.001C16.303 15 17.403 14.161 17.817 13H20.931C21.936 13 22.869 12.5 23.44 11.645L27.463 5.297L27.461 5.296ZM13 11C12.449 11 12 11.449 12 12C12 12.551 12.449 13 13 13H15C15.551 13 16 12.551 16 12C16 11.449 15.551 11 15 11H13ZM2.169 4.133C2.435 4.055 2.71 4 3 4H8V3C8 1.35 9.35 0 11 0H17C18.65 0 20 1.35 20 3V4H25C25.29 4 25.565 4.055 25.831 4.133L21.762 10.555C21.576 10.834 21.265 11 20.93 11H17.816C17.402 9.839 16.302 9 15 9H13C11.698 9 10.598 9.839 10.184 11H7.07C6.735 11 6.424 10.833 6.251 10.574L2.169 4.133ZM10 4H18V3C18 2.45 17.55 2 17 2H11C10.45 2 10 2.45 10 3V4Z" fill="#42E26F"/>
</svg>
