<svg width="80" height="80" viewBox="0 0 80 80" fill="none" xmlns="http://www.w3.org/2000/svg">
<path fill-rule="evenodd" clip-rule="evenodd" d="M47.6418 2.8021C47.8198 2.13601 48.504 1.74039 49.1701 1.91835C49.8362 2.09632 50.2318 2.78054 50.0539 3.44664L33.5022 65.2185C32.9995 67.0945 31.7726 68.5959 30.2011 69.503C28.6525 70.3971 26.7704 70.7116 24.919 70.2365C24.8683 70.2262 24.8186 70.2129 24.7701 70.1966C22.9273 69.681 21.4543 68.4682 20.5614 66.9213C20.5468 66.8962 20.5332 66.8707 20.5206 66.8449C19.6578 65.3102 19.3601 63.4574 19.8279 61.6343C19.8376 61.5866 19.85 61.5401 19.8648 61.4946L20.2589 60.0238C20.4368 59.3577 21.1211 58.9621 21.7872 59.1401C22.4532 59.318 22.8489 60.0023 22.6709 60.6684L22.2589 62.206C21.9393 63.3987 22.1257 64.6118 22.6848 65.6151C22.6968 65.6335 22.7082 65.6521 22.7195 65.6713C23.3059 66.687 24.2765 67.4799 25.4898 67.8052L25.4904 67.8054C26.7073 68.1315 27.9457 67.9307 28.9607 67.3448C29.9729 66.7604 30.7642 65.7896 31.09 64.574L47.6418 2.8021Z" fill="#001419"/>
<path fill-rule="evenodd" clip-rule="evenodd" d="M72.4176 46.555C71.1003 42.5851 67.8789 39.3222 63.5595 38.1648C58.9065 36.9181 54.1354 38.4244 50.9931 41.6733C50.8715 41.799 50.7037 41.8455 50.5348 41.8001C50.3659 41.755 50.2439 41.6308 50.2014 41.4611C49.1045 37.0764 45.7256 33.3864 41.0728 32.1395C36.4198 30.8926 31.6487 32.3989 28.5064 35.6478C28.3848 35.7734 28.217 35.82 28.0481 35.7747C27.8792 35.7294 27.7571 35.6053 27.7146 35.4356C26.6178 31.0509 23.239 27.3609 18.5861 26.114C14.2667 24.9567 9.84527 26.1717 6.7198 28.9509C6.55902 29.0939 6.32996 29.1106 6.15027 28.992C5.97137 28.8739 5.89574 28.6583 5.96246 28.4547C11.6745 11.0148 30.2537 0.795453 48.1843 5.59998C66.1151 10.4045 77.0954 28.5444 73.3218 46.5037C73.2778 46.7139 73.1046 46.8625 72.8903 46.8753C72.6754 46.8881 72.4854 46.7592 72.4176 46.555Z" fill="#42E26F"/>
<path fill-rule="evenodd" clip-rule="evenodd" d="M50.2012 41.461C49.1043 37.0763 45.7254 33.3863 41.0726 32.1394C36.4196 30.8927 31.6485 32.3988 28.5062 35.6477C28.3846 35.7733 28.2168 35.8199 28.0479 35.7746C27.879 35.7293 27.757 35.6052 27.7145 35.4355C26.6176 31.0508 23.2389 27.3608 18.5859 26.114C14.2668 24.9566 9.84573 26.1715 6.72026 28.9502C6.55963 29.093 6.3312 29.1097 6.15166 28.9918C5.97213 28.8738 5.89666 28.6579 5.96354 28.4538C6.05557 28.1733 6.15088 27.8947 6.24932 27.618C9.37495 24.0461 14.3767 22.3329 19.249 23.6383C24.2107 24.9679 27.7235 29.0757 28.5656 33.8416C31.6778 30.1352 36.7739 28.3341 41.7356 29.6636C46.6973 30.9932 50.2103 35.101 51.0521 39.8669C54.1642 36.1604 59.2604 34.3594 64.2223 35.6888C69.0951 36.9946 72.5703 40.9797 73.4909 45.6365C73.4378 45.9252 73.381 46.214 73.3206 46.5026C73.2765 46.7129 73.1031 46.8621 72.8887 46.8744C72.6742 46.8868 72.4848 46.758 72.4171 46.5541C71.0998 42.5846 67.8784 39.3216 63.5592 38.1643C58.9062 36.9176 54.1351 38.4238 50.9928 41.6727C50.8712 41.7985 50.7034 41.8449 50.5345 41.7996C50.3657 41.7547 50.2437 41.6305 50.2012 41.461Z" fill="#2BBA53"/>
<path fill-rule="evenodd" clip-rule="evenodd" d="M50.5329 41.7993C50.3711 41.7553 50.2527 41.6387 50.2066 41.4792C49.8305 39.966 49.1824 38.5356 48.3043 37.2588L48.3014 37.2548C48.2628 37.1987 48.2238 37.1431 48.1843 37.0876L48.1796 37.081C48.14 37.0256 48.1 36.9704 48.0596 36.9154L48.0563 36.911C48.0163 36.8568 47.9758 36.8028 47.935 36.7492L47.9268 36.7384C47.8866 36.6859 47.8461 36.6335 47.8052 36.5817L47.7975 36.572C47.7558 36.519 47.7136 36.4665 47.671 36.4142L47.6697 36.4128C47.2722 35.9253 46.8385 35.4659 46.3711 35.0392L46.3614 35.0303C46.3149 34.9879 46.268 34.9459 46.2207 34.9042L46.1986 34.8846C46.1541 34.8454 46.1094 34.8067 46.0643 34.7681L46.0336 34.7418C45.9896 34.7043 45.9452 34.6671 45.9005 34.6303L45.8668 34.6024C45.8238 34.567 45.7804 34.532 45.7368 34.4971L45.6955 34.4643C45.6522 34.4299 45.6086 34.3957 45.5649 34.362L45.5269 34.3328C45.4822 34.2985 45.4374 34.2645 45.3922 34.2309L45.3532 34.202C45.3082 34.1687 45.2629 34.1354 45.2172 34.1026L45.1772 34.0742C45.1314 34.0415 45.0855 34.009 45.0393 33.9768L45.003 33.9518C44.9543 33.9182 44.9054 33.8848 44.856 33.8518L44.8413 33.8421C44.5554 33.6517 44.2605 33.472 43.9572 33.3038L43.9297 33.2884C43.8818 33.262 43.8333 33.236 43.785 33.2103C43.7679 33.201 43.7508 33.1917 43.7335 33.1826C43.6861 33.1574 43.6383 33.1331 43.5905 33.1085L43.5364 33.0809C43.4908 33.0578 43.4449 33.0351 43.3989 33.0124L43.3338 32.9806C43.2903 32.9595 43.2466 32.9388 43.2029 32.9184L43.1289 32.8838C43.0875 32.8648 43.046 32.8459 43.0043 32.8271L42.92 32.7896C42.8799 32.772 42.8397 32.7545 42.7994 32.7373C42.77 32.7246 42.7405 32.7121 42.711 32.6998C42.6722 32.6835 42.6333 32.6674 42.5943 32.6515C42.5619 32.6382 42.5294 32.6253 42.4971 32.6124C42.4589 32.5973 42.4207 32.5821 42.3824 32.5673C42.351 32.5551 42.3196 32.5432 42.288 32.5313C42.2477 32.516 42.2074 32.501 42.1669 32.4862C42.136 32.4748 42.1047 32.4637 42.0736 32.4526C42.0335 32.4382 41.9935 32.4238 41.953 32.4099C41.9202 32.3985 41.8872 32.3876 41.8543 32.3765C41.8147 32.3631 41.7752 32.3498 41.7354 32.3367C41.7002 32.3251 41.6647 32.3142 41.6294 32.3029C41.5921 32.291 41.5549 32.2792 41.5174 32.2676C41.4772 32.2553 41.4368 32.2435 41.3963 32.2315C41.3625 32.2215 41.3286 32.2113 41.2947 32.2015C41.2429 32.1865 41.1907 32.1723 41.1386 32.1581C41.1168 32.1521 41.0952 32.1459 41.0733 32.1399L41.0727 32.1398L41.0329 32.1295C40.9711 32.1131 40.9094 32.0971 40.8477 32.0817C40.823 32.0756 40.7983 32.0699 40.7738 32.0638C40.7229 32.0515 40.6719 32.0392 40.621 32.0274C40.5918 32.0207 40.5625 32.0145 40.5335 32.0081C40.4875 31.9978 40.4414 31.9876 40.3954 31.9779C40.3638 31.9712 40.3322 31.9649 40.3007 31.9585C40.2569 31.9496 40.2132 31.9407 40.1694 31.9324C40.1369 31.9262 40.1044 31.9204 40.0721 31.9143C40.0283 31.9062 39.9847 31.8982 39.9408 31.8907C39.9105 31.8854 39.8802 31.8804 39.8499 31.8754C39.8035 31.8678 39.7572 31.8603 39.7108 31.8531C39.6822 31.8487 39.6536 31.8445 39.625 31.8403C39.578 31.8334 39.531 31.8265 39.4839 31.8201L39.3961 31.8085C39.3488 31.8024 39.3014 31.7967 39.2543 31.791L39.1727 31.7817C39.1229 31.7762 39.073 31.771 39.0232 31.766L38.9466 31.7585C38.8955 31.7538 38.8444 31.7495 38.7933 31.7453L38.7202 31.7395C38.6674 31.7356 38.6146 31.732 38.5619 31.7287C38.5396 31.7273 38.5172 31.7257 38.4949 31.7245C38.4377 31.7212 38.3807 31.7185 38.3236 31.716L38.2705 31.7137C38.2086 31.7112 38.1468 31.7095 38.0849 31.7079L38.0444 31.7068C37.663 31.6985 37.2835 31.7078 36.9064 31.7335L36.8874 31.7349C36.8186 31.7398 36.75 31.7451 36.6814 31.7509L36.6541 31.7534C36.5899 31.759 36.5257 31.7651 36.4616 31.7718L36.4185 31.7765C36.3586 31.7829 36.2989 31.7896 36.2393 31.7968L36.1927 31.8026C36.1335 31.8099 36.0743 31.8178 36.0152 31.826L35.9716 31.8321C35.9122 31.8406 35.853 31.8495 35.7939 31.8588L35.7482 31.866C35.6891 31.8756 35.6302 31.8854 35.5713 31.8957L35.5296 31.9031C35.4669 31.9143 35.4044 31.9259 35.3421 31.9381L35.3136 31.9435C35.2479 31.9565 35.1822 31.9699 35.1168 31.9838L35.0957 31.9884C34.3621 32.1459 33.6461 32.3671 32.9557 32.6473L32.9416 32.6531C32.8761 32.6798 32.8108 32.707 32.7457 32.7346L32.7389 32.7374C32.6722 32.7659 32.6057 32.7949 32.5394 32.8246L32.5339 32.8271C32.4669 32.8571 32.4002 32.8876 32.3338 32.9187L32.3313 32.9198C30.9068 33.5865 29.6068 34.5101 28.5064 35.6478C28.3857 35.7726 28.2194 35.8192 28.0518 35.7756C30.3025 27.6749 36.508 11.6632 48.185 5.6001C54.4774 15.4537 53.3883 30.7851 50.5329 41.7993Z" fill="#2BBA53"/>
<path fill-rule="evenodd" clip-rule="evenodd" d="M48.3041 37.2589L48.3013 37.2548C48.2627 37.1987 48.2236 37.1431 48.1841 37.0876L48.1794 37.0811C48.1399 37.0256 48.0999 36.9704 48.0594 36.9154L48.0563 36.9112C48.0155 36.8559 47.9744 36.8009 47.9327 36.7464L47.9297 36.7426C47.8878 36.6878 47.8457 36.6332 47.803 36.5792L47.8011 36.5767C47.3683 36.0281 46.8905 35.5134 46.3711 35.0392L46.3614 35.0303C46.3149 34.9879 46.268 34.9459 46.2207 34.9042L46.1986 34.8847C46.1541 34.8454 46.1094 34.8067 46.0643 34.7681L46.0336 34.7418C45.9896 34.7043 45.9452 34.6672 45.9005 34.6303L45.8669 34.6026C45.823 34.5665 45.7789 34.5307 45.7344 34.4953L45.6977 34.4661C45.6536 34.4311 45.6093 34.3962 45.5646 34.3618L45.5268 34.3328C45.4821 34.2986 45.4372 34.2645 45.3921 34.2309L45.353 34.202C45.308 34.1687 45.2627 34.1354 45.2171 34.1026L45.1771 34.0742C45.1313 34.0415 45.0854 34.009 45.0391 33.9768L45.0029 33.9518C44.9541 33.9182 44.9052 33.8848 44.8558 33.8518L44.8411 33.8422C44.5552 33.6517 44.2604 33.472 43.9571 33.3039L43.9296 33.2884C43.8816 33.262 43.8332 33.2361 43.7849 33.2103C43.7677 33.2011 43.7507 33.1917 43.7333 33.1826C43.686 33.1575 43.6382 33.1331 43.5904 33.1086L43.5363 33.0809C43.4907 33.0578 43.4447 33.0351 43.3988 33.0125L43.3336 32.9806C43.2902 32.9595 43.2464 32.9389 43.2027 32.9184L43.1288 32.8839C43.0874 32.8648 43.0458 32.8459 43.0041 32.8271L42.9199 32.7897C42.8797 32.772 42.8396 32.7545 42.7993 32.7373C42.7699 32.7247 42.7404 32.7122 42.7108 32.6998C42.6721 32.6836 42.6332 32.6675 42.5941 32.6515C42.5618 32.6382 42.5293 32.6253 42.4969 32.6125C42.4588 32.5973 42.4205 32.5822 42.3822 32.5673C42.3508 32.5551 42.3194 32.5432 42.2879 32.5314C42.2475 32.5161 42.2072 32.5011 42.1668 32.4862C42.1358 32.4748 42.1046 32.4637 42.0735 32.4526C42.0333 32.4382 41.9933 32.4239 41.9529 32.41C41.92 32.3986 41.8871 32.3876 41.8541 32.3765C41.8146 32.3631 41.775 32.3498 41.7352 32.3367C41.7 32.3251 41.6646 32.3142 41.6293 32.3029C41.5919 32.2911 41.5547 32.2792 41.5172 32.2676C41.4771 32.2553 41.4366 32.2436 41.3961 32.2315C41.3624 32.2215 41.3285 32.2114 41.2946 32.2015C41.2427 32.1865 41.1905 32.1723 41.1385 32.1581C41.1166 32.1522 41.095 32.1459 41.0732 32.14L41.0725 32.1398L41.0327 32.1295C40.971 32.1131 40.9093 32.0972 40.8475 32.0817C40.8229 32.0756 40.7982 32.07 40.7736 32.0639C40.7227 32.0515 40.6718 32.0392 40.6208 32.0275C40.5916 32.0207 40.5624 32.0145 40.5333 32.0081C40.4874 31.9978 40.4413 31.9876 40.3952 31.9779C40.3636 31.9712 40.3321 31.965 40.3005 31.9586C40.2568 31.9497 40.213 31.9407 40.1693 31.9325C40.1368 31.9262 40.1043 31.9204 40.0719 31.9143C40.0282 31.9062 39.9846 31.8982 39.9407 31.8907C39.9104 31.8854 39.88 31.8804 39.8497 31.8754C39.8033 31.8678 39.7571 31.8603 39.7107 31.8531C39.6821 31.8487 39.6535 31.8445 39.6249 31.8403C39.5779 31.8334 39.5308 31.8265 39.4838 31.8201L39.396 31.8086C39.3493 31.8025 39.3025 31.7968 39.2558 31.7912L39.1694 31.7814C39.1225 31.7762 39.0757 31.7712 39.0289 31.7667C39 31.7639 38.9713 31.7609 38.9425 31.7582C38.8941 31.7537 38.8457 31.7497 38.7972 31.7457L38.7193 31.7395C38.6668 31.7356 38.6143 31.732 38.5618 31.7287C38.5394 31.7273 38.5171 31.7257 38.4947 31.7245C38.4375 31.7212 38.3805 31.7186 38.3235 31.7161L38.2704 31.7137C38.2085 31.7112 38.1466 31.7095 38.0847 31.7079L38.0443 31.7068C37.7389 31.7003 37.4347 31.7048 37.1322 31.7201L37.1225 31.7206C37.0505 31.7243 36.9786 31.7286 36.9069 31.7336L36.8843 31.7351C36.8174 31.7398 36.7507 31.745 36.6841 31.7507L36.6483 31.754C36.5863 31.7595 36.5244 31.7654 36.4625 31.7718L36.4149 31.777C36.3575 31.7831 36.3004 31.7897 36.2433 31.7965L36.1866 31.8036C36.1308 31.8106 36.0752 31.8179 36.0197 31.8256L35.9663 31.8331C35.9097 31.8412 35.8533 31.8497 35.7969 31.8586L35.7464 31.8665C35.688 31.8759 35.6296 31.8857 35.5713 31.8961L35.5296 31.9034C35.4669 31.9147 35.4044 31.9262 35.3421 31.9384L35.3136 31.9439C35.2479 31.9568 35.1822 31.9703 35.1168 31.9842L35.0957 31.9887C34.3621 32.1462 33.6461 32.3675 32.9557 32.6476L32.9416 32.6534C32.8768 32.6798 32.8119 32.7068 32.7475 32.7342L32.7369 32.7387C32.6716 32.7665 32.6066 32.795 32.5419 32.8239L32.5324 32.8281C32.466 32.8578 32.3999 32.8881 32.3341 32.9189L32.3316 32.92C30.9069 33.5867 29.6069 34.5104 28.5068 35.6479C28.386 35.7728 28.2196 35.8195 28.0518 35.7756C28.2277 35.1428 28.428 34.4615 28.6527 33.7412L28.6535 33.7403C28.7013 33.6847 28.7494 33.6293 28.798 33.5747L28.8021 33.5701C28.851 33.5151 28.9004 33.4606 28.95 33.4065L28.9513 33.4051C29.0008 33.3514 29.0507 33.2981 29.101 33.2451L29.1061 33.2396C29.2077 33.1332 29.311 33.0286 29.4158 32.9257L29.42 32.9215C29.4713 32.8714 29.523 32.8217 29.575 32.7725L29.5827 32.7651C29.6354 32.7154 29.6883 32.6662 29.7418 32.6175L29.7436 32.6157C29.7961 32.5678 29.8491 32.5203 29.9022 32.4732L29.9152 32.4617C29.9663 32.4167 30.0179 32.372 30.0696 32.3278L30.0847 32.315C30.1371 32.2704 30.1897 32.2262 30.2429 32.1826L30.2536 32.1737C30.3072 32.1297 30.3613 32.0861 30.4155 32.0429L30.4275 32.0334C30.483 31.9893 30.5391 31.9457 30.5954 31.9026L30.5991 31.8998C30.6552 31.8568 30.7116 31.8143 30.7683 31.7723L30.783 31.7614C30.8372 31.7212 30.8919 31.6815 30.9468 31.6425L30.9647 31.6296C31.0197 31.5904 31.075 31.5518 31.1305 31.5136L31.1458 31.5031C31.2018 31.4646 31.2582 31.4265 31.3147 31.389L31.3308 31.3784C31.3869 31.3414 31.4432 31.3047 31.4997 31.2684L31.5196 31.2557C31.5749 31.2204 31.6305 31.1857 31.6863 31.1512L31.7113 31.1359C31.7664 31.1022 31.8219 31.0687 31.8775 31.0357L31.9008 31.022C31.9571 30.9889 32.0133 30.9561 32.07 30.9237L32.0938 30.9103C32.1502 30.8782 32.2066 30.8467 32.2635 30.8156L32.2899 30.8012C32.3458 30.7707 32.4019 30.7407 32.4582 30.7111L32.4889 30.695C32.5439 30.6662 32.5991 30.6379 32.6544 30.61L32.6904 30.592C32.7441 30.5651 32.7982 30.5384 32.8524 30.5123L32.8929 30.4929C32.9466 30.4672 33.0005 30.4418 33.0546 30.4168L33.0941 30.3987C33.1485 30.3739 33.2029 30.3492 33.2577 30.3251L33.2982 30.3075C33.353 30.2834 33.408 30.2598 33.4633 30.2365L33.5005 30.2211C33.5569 30.1975 33.6135 30.1743 33.6702 30.1515L33.7083 30.1364C33.7633 30.1145 33.8186 30.0929 33.8739 30.0718L33.9238 30.0531C33.9771 30.0331 34.0304 30.0132 34.0839 29.9939L34.1327 29.9765C34.1861 29.9575 34.2396 29.9386 34.2933 29.9201L34.3461 29.9023C34.3997 29.8842 34.4535 29.8664 34.5072 29.8489L34.5564 29.8332C34.6102 29.8162 34.6638 29.7993 34.7177 29.7829L34.778 29.765C34.8288 29.7498 34.8796 29.7348 34.9305 29.7203L34.9954 29.7021C35.0466 29.6878 35.0979 29.6736 35.1494 29.66L35.2046 29.6456C35.2586 29.6315 35.3125 29.6175 35.3668 29.604L35.4269 29.5895C35.4782 29.577 35.5294 29.5648 35.581 29.5529C35.6046 29.5475 35.6282 29.5425 35.6516 29.5371C35.7021 29.5259 35.7525 29.5147 35.8033 29.5039L35.8671 29.4907C35.9186 29.4801 35.9702 29.4697 36.0218 29.4597C36.0461 29.455 36.0707 29.4506 36.095 29.4459C36.1443 29.4367 36.1936 29.4276 36.243 29.4189C36.2669 29.4147 36.2908 29.4107 36.3147 29.4068C36.3652 29.3982 36.4157 29.3898 36.4663 29.3818C36.49 29.3781 36.5138 29.3747 36.5377 29.3711C36.5882 29.3634 36.6386 29.3559 36.6893 29.3489C36.7146 29.3453 36.7402 29.3423 36.7655 29.3389C36.8143 29.3325 36.8632 29.3259 36.9121 29.3201C36.9393 29.3168 36.9664 29.3139 36.9936 29.3109C37.0413 29.3054 37.0888 29.3 37.1364 29.2951C37.1664 29.292 37.1964 29.2893 37.2264 29.2865C37.2713 29.2823 37.316 29.2779 37.3608 29.274C37.393 29.2712 37.4252 29.269 37.4575 29.2665C37.5008 29.2632 37.5441 29.2598 37.5874 29.2568C37.6188 29.2547 37.6502 29.2531 37.6818 29.2512C37.7266 29.2486 37.7714 29.2457 37.8164 29.2436C37.8472 29.242 37.8782 29.2411 37.9089 29.2397C37.9533 29.2378 37.9977 29.2359 38.0422 29.2345C38.0752 29.2334 38.1082 29.2329 38.1411 29.2322C38.1849 29.2311 38.2286 29.23 38.2725 29.2295C38.3043 29.229 38.3363 29.2292 38.368 29.229C38.4121 29.2287 38.456 29.2284 38.5 29.2286C38.5344 29.2287 38.5688 29.2295 38.6032 29.2298C38.6454 29.2304 38.6875 29.2307 38.7297 29.2317C38.7649 29.2325 38.8 29.2339 38.8352 29.235C38.8764 29.2362 38.9177 29.2373 38.9591 29.239C38.995 29.2404 39.031 29.2425 39.0669 29.2443C39.1082 29.2464 39.1493 29.2482 39.1905 29.2506C39.2246 29.2526 39.2588 29.2553 39.2929 29.2575C39.3358 29.2604 39.3786 29.2631 39.4216 29.2664C39.4558 29.269 39.49 29.2723 39.5244 29.2753C39.5669 29.279 39.6096 29.2823 39.6521 29.2865C39.6866 29.2898 39.7211 29.2939 39.7555 29.2973C39.7985 29.3018 39.8414 29.3061 39.8844 29.3111C39.9191 29.315 39.9536 29.3197 39.9883 29.3239C40.0304 29.329 40.0724 29.334 40.1144 29.3397C40.153 29.3448 40.1916 29.3506 40.2302 29.3561C40.2688 29.3615 40.3075 29.3668 40.3461 29.3726C40.3877 29.3789 40.4293 29.3861 40.4708 29.3928C40.5063 29.3986 40.5418 29.404 40.5774 29.41C40.6158 29.4165 40.6543 29.4239 40.6927 29.4307C40.7319 29.4378 40.7713 29.4446 40.8107 29.452C40.8504 29.4595 40.8899 29.4678 40.9296 29.4757C40.9668 29.4832 41.0039 29.4903 41.0411 29.4981C41.0882 29.5079 41.1352 29.5186 41.1822 29.5289C41.2119 29.5354 41.2414 29.5417 41.2711 29.5484L41.2754 29.5493C41.3516 29.5667 41.4277 29.585 41.5039 29.6039C41.5816 29.6231 41.6591 29.6431 41.7366 29.6639C41.8135 29.6845 41.89 29.7057 41.9663 29.7276L41.9682 29.7281C42.0438 29.7498 42.1189 29.7723 42.1938 29.7953L42.1975 29.7964C42.2324 29.8072 42.2669 29.8184 42.3016 29.8295C42.3418 29.8422 42.3819 29.8547 42.4219 29.8678C42.4541 29.8784 42.486 29.8895 42.518 29.9003C42.5608 29.9147 42.6038 29.9289 42.6463 29.9437C42.6769 29.9543 42.7072 29.9656 42.7377 29.9765C42.7813 29.9922 42.825 30.0075 42.8683 30.0236C42.9003 30.0354 42.9321 30.0478 42.9638 30.0598C43.005 30.0754 43.0464 30.0909 43.0875 30.107C43.118 30.1189 43.1482 30.1314 43.1785 30.1434C43.221 30.1604 43.2638 30.1773 43.306 30.1947C43.3389 30.2082 43.3716 30.2225 43.4044 30.2362C43.4425 30.2523 43.4808 30.2682 43.5186 30.2847C43.5571 30.3014 43.5952 30.3186 43.6335 30.3356C43.6663 30.3503 43.6991 30.3645 43.7318 30.3793C43.7693 30.3965 43.8066 30.4142 43.8439 30.4315C43.8766 30.4468 43.9094 30.4618 43.9419 30.4773C43.9791 30.4951 44.0161 30.5136 44.0532 30.5317C44.0855 30.5475 44.1182 30.5632 44.1504 30.5793C44.1875 30.5979 44.2243 30.6172 44.2613 30.6361C44.2925 30.6522 44.3239 30.6679 44.355 30.6842C44.3941 30.7047 44.433 30.7256 44.4718 30.7465C44.5004 30.7618 44.5291 30.777 44.5577 30.7926C44.5982 30.8148 44.6383 30.8375 44.6785 30.8601C44.7049 30.875 44.7314 30.8897 44.7577 30.9045C44.7957 30.9262 44.8332 30.9482 44.8708 30.9703C44.8996 30.987 44.9285 31.0037 44.9571 31.0207C44.9972 31.0447 45.0371 31.069 45.0769 31.0934C45.1011 31.1082 45.1257 31.1228 45.1499 31.1378C45.1919 31.1637 45.2335 31.1903 45.275 31.2167C45.2979 31.2312 45.3208 31.2454 45.3435 31.2601C45.3832 31.2857 45.4224 31.3117 45.4618 31.3378C45.486 31.3539 45.5103 31.3697 45.5346 31.3857C45.5758 31.4134 45.6168 31.4415 45.6577 31.4697C45.6785 31.484 45.6994 31.4981 45.7202 31.5125C45.7649 31.5436 45.8091 31.5751 45.8533 31.6068C45.8702 31.6189 45.8872 31.6307 45.9039 31.6429C45.9489 31.6754 45.9935 31.7084 46.0378 31.7414L46.0866 31.7775C46.1318 31.8114 46.1766 31.8457 46.2213 31.8803C46.236 31.8915 46.2507 31.9026 46.2652 31.914C46.3083 31.9476 46.3511 31.9817 46.3939 32.0159C46.4107 32.0292 46.4275 32.0423 46.4441 32.0557C46.4869 32.0904 46.5294 32.1254 46.5719 32.1606L46.6171 32.1979C46.6586 32.2328 46.6999 32.2679 46.741 32.3032L46.7904 32.3456C46.8294 32.3795 46.8682 32.4139 46.9069 32.4482C46.9244 32.4639 46.9421 32.4792 46.9594 32.495C47.0005 32.5318 47.0411 32.5692 47.0818 32.6067L47.1225 32.6442C47.1646 32.6832 47.2063 32.7228 47.2477 32.7625L47.2857 32.7986C47.3294 32.8407 47.3729 32.8834 47.416 32.9262L47.4432 32.9531C47.4863 32.9961 47.5289 33.0395 47.5713 33.0829L47.6019 33.1143C47.6439 33.1578 47.6857 33.2015 47.7271 33.2456L47.7557 33.2757C47.7968 33.3197 47.8372 33.3637 47.8775 33.4082L47.9077 33.4412C47.9488 33.4867 47.9896 33.5326 48.0299 33.5787L48.0549 33.6072C48.0955 33.6537 48.1358 33.7007 48.1758 33.7479L48.2003 33.7768C48.241 33.8251 48.2813 33.8737 48.3213 33.9226L48.3419 33.9478C48.3825 33.9978 48.4227 34.0479 48.4625 34.0984L48.4808 34.1215C48.5207 34.1723 48.5602 34.2236 48.5994 34.275L48.6172 34.2982C48.6568 34.3504 48.696 34.4029 48.7346 34.4557L48.7494 34.4759C48.7888 34.5297 48.8277 34.5839 48.8661 34.6382L48.8793 34.6567C48.9182 34.712 48.9568 34.7675 48.9949 34.8234L49.0054 34.8387C49.0425 34.8934 49.0793 34.9484 49.1157 35.0036L49.131 35.0267C49.1674 35.0822 49.2033 35.1381 49.2388 35.194L49.2502 35.212C49.2861 35.269 49.3216 35.3262 49.3568 35.3839L49.3672 35.4011C49.4033 35.4604 49.4389 35.5201 49.4739 35.58L49.4797 35.5898C49.5147 35.6495 49.5491 35.7097 49.583 35.77L49.5914 35.7848C49.6257 35.8459 49.6594 35.9072 49.6929 35.9687L49.6977 35.9776C49.7313 36.04 49.7644 36.1025 49.7969 36.1653L49.8018 36.1745C49.8343 36.2373 49.8664 36.3006 49.8979 36.364L49.9024 36.3729C49.9344 36.4375 49.9658 36.5022 49.9968 36.567L49.9989 36.5715C50.0302 36.6372 50.0607 36.7029 50.0908 36.7692L50.0927 36.7734C50.123 36.84 50.1527 36.9068 50.1818 36.9739L50.1827 36.9762C50.2118 37.0432 50.2402 37.1106 50.2682 37.1781L50.2699 37.1823C50.298 37.2503 50.3254 37.3184 50.3524 37.3868L50.3527 37.3876C50.3796 37.4559 50.406 37.5245 50.4316 37.5932L50.4332 37.5973C50.4586 37.6656 50.4835 37.734 50.5079 37.8026L50.5094 37.8072C50.5338 37.8761 50.5577 37.9453 50.581 38.0147L50.5819 38.0176C50.6999 38.3698 50.803 38.7276 50.8904 39.0901L50.8908 39.092C50.9082 39.1639 50.9247 39.2357 50.9408 39.3079L50.9416 39.3112C50.9739 39.4567 51.0038 39.6028 51.0311 39.7497C50.8722 40.4468 50.7058 41.1306 50.5327 41.7984C50.3713 41.7543 50.253 41.6382 50.2066 41.4792C49.8303 39.9665 49.1824 38.5357 48.3041 37.2589Z" fill="#42E26F"/>
<path fill-rule="evenodd" clip-rule="evenodd" d="M30.9146 40.0574L15.4775 46.6732V59.7747C15.4775 68.8102 22.0736 76.5832 30.9146 78.1244C39.7554 76.5832 46.3516 68.8102 46.3516 59.7747V46.6732L30.9146 40.0574Z" fill="#FFD533"/>
<path fill-rule="evenodd" clip-rule="evenodd" d="M30.9146 40.0574L29.9033 40.4907L44.3291 46.673V59.7746C44.3291 68.4619 38.231 75.9811 29.9033 77.9175C30.2371 77.9952 30.5739 78.0649 30.9146 78.1242C39.7554 76.583 46.3516 68.81 46.3516 59.7746V46.673L30.9146 40.0574Z" fill="#FFE378"/>
<path fill-rule="evenodd" clip-rule="evenodd" d="M30.9147 44.137L19.2275 49.1456V59.7745C19.2275 66.7398 24.1682 72.8143 30.9147 74.3029C37.6611 72.8143 42.6018 66.7399 42.6018 59.7745V49.1456L30.9147 44.137Z" fill="#F6F1F1"/>
<path fill-rule="evenodd" clip-rule="evenodd" d="M30.9147 44.137L19.2275 49.1456V59.7745C19.2275 66.7398 24.1682 72.8143 30.9147 74.3029C31.2061 74.2385 31.4941 74.1651 31.7785 74.084C25.4783 72.2873 20.9552 66.439 20.9552 59.7745V49.1456L31.7785 44.5071L30.9147 44.137Z" fill="#F6F1F1"/>
<path fill-rule="evenodd" clip-rule="evenodd" d="M29.193 60.2473L35.5677 53.8091C36.3222 53.0469 37.5533 53.0448 38.3131 53.8006C39.0728 54.5561 39.0753 55.7837 38.3216 56.5444C35.7366 59.1533 33.1691 61.7794 30.5722 64.3764C29.813 65.1356 28.5816 65.1356 27.8222 64.3764L23.5138 60.068C22.7545 59.3087 22.7545 58.0772 23.5138 57.318C24.273 56.5587 25.5045 56.5587 26.2638 57.318L29.193 60.2473Z" fill="#001419"/>
</svg>
