<svg width="32" height="32" viewBox="0 0 32 32" fill="none" xmlns="http://www.w3.org/2000/svg">
<path d="M16 0C12.8355 0 9.74207 0.938384 7.11088 2.69649C4.4797 4.45459 2.42894 6.95345 1.21793 9.87707C0.00693251 12.8007 -0.309921 16.0177 0.307443 19.1214C0.924806 22.2251 2.44866 25.0761 4.6863 27.3137C6.92394 29.5513 9.77487 31.0752 12.8786 31.6926C15.9823 32.3099 19.1993 31.9931 22.1229 30.7821C25.0466 29.5711 27.5454 27.5203 29.3035 24.8891C31.0616 22.2579 32 19.1645 32 16C32 11.7565 30.3143 7.68687 27.3137 4.68629C24.3131 1.68571 20.2435 0 16 0ZM23.5284 22.4632C22.8232 22.9937 20.5958 22.5789 20.2274 22.3347C19.0463 21.6779 18.3326 20.459 18.6105 19.0926C19.1537 17.4568 21.0695 14.04 21.0695 13.5158C21.1347 13.0611 20.9411 12.8021 20.6168 12.8021C20.4232 12.8021 20.1642 12.9979 19.9053 13.3221C19.1579 14.8168 20.1158 12.8337 17.5747 17.9263C17.0568 18.9642 16.7979 19.5474 16.7326 19.6105C16.1263 21.0295 14.12 20.8737 14.339 19.3516C14.339 19.1411 16.1516 14.8105 16.1516 14.4232C16.32 13.24 15.1579 13.1726 14.8568 13.7747C12.9347 18.4379 12.2442 21.3095 11.3684 21.7516C10.8907 22.0069 10.3392 22.0883 9.80811 21.9819C9.27703 21.8755 8.79938 21.588 8.45685 21.1684C7.64001 20.1158 8.10316 19.0926 8.52211 17.7326C10.3074 11.9158 10.44 10.6737 12.08 10.0147C13.7958 9.32632 14.8168 10.7726 15.5747 10.7284C16.1768 10.6926 16.9895 9.29053 18.1011 9.27789C19.2126 9.26526 19.9958 10.1537 20.3642 10.1937C20.7326 10.2337 20.8168 9.89474 21.5874 9.89474C22.8821 9.9579 23.5305 10.5411 23.7242 11.7747C23.9663 13.7242 19.7832 19.9095 21.6526 20.6568C22.4947 20.9979 22.819 20.7221 23.4632 21.0463C24.0568 21.1558 24.2653 22.2189 23.5284 22.4632Z" fill="#42E26F"/>
</svg>
