<svg width="80" height="80" viewBox="0 0 80 80" fill="none" xmlns="http://www.w3.org/2000/svg">
<g clip-path="url(#clip0_162_7593)">
<path d="M69.5205 23.5361H29.1687C26.9924 23.5361 25.2324 25.2961 25.2324 27.4561V52.528C25.2324 54.688 26.9924 56.448 29.1687 56.448H69.5043C71.6805 56.448 73.4405 54.688 73.4405 52.528V27.4561C73.4405 25.2961 71.6805 23.5361 69.5205 23.5361Z" fill="#FCC802"/>
<path d="M71.8083 31.9999H25.3921C24.9283 31.9999 24.5439 31.6318 24.5439 31.1681C24.5439 30.7037 24.9283 30.3362 25.3921 30.3362H71.8083C72.2721 30.3362 72.6564 30.7037 72.6564 31.1681C72.6564 31.6318 72.2721 31.9999 71.8083 31.9999Z" fill="white"/>
<path d="M52.6239 47.0399C52.4164 47.0399 52.192 46.9599 52.032 46.7999C51.6964 46.4799 51.6964 45.9362 52.032 45.6162L53.9201 43.728C54.2564 43.408 54.7839 43.408 55.1039 43.728C55.4401 44.048 55.4401 44.5918 55.1039 44.9118L53.2164 46.7999C53.0564 46.9599 52.8482 47.0399 52.6239 47.0399Z" fill="white"/>
<path d="M54.512 47.0399C54.3039 47.0399 54.0801 46.9599 53.9201 46.7999L52.032 44.9118C51.6964 44.5918 51.6964 44.048 52.032 43.728C52.3682 43.408 52.8964 43.408 53.2164 43.728L55.1039 45.6162C55.4401 45.9362 55.4401 46.4799 55.1039 46.7999C54.9439 46.9599 54.7364 47.0399 54.512 47.0399Z" fill="white"/>
<path d="M57.1834 47.0399C56.9759 47.0399 56.7516 46.9599 56.5916 46.7999C56.2559 46.4799 56.2559 45.9362 56.5916 45.6162L58.4797 43.728C58.8159 43.408 59.3434 43.408 59.6634 43.728C59.9997 44.048 59.9997 44.5918 59.6634 44.9118L57.7759 46.7999C57.6159 46.9599 57.4078 47.0399 57.1834 47.0399Z" fill="white"/>
<path d="M59.0716 47.0399C58.8634 47.0399 58.6397 46.9599 58.4797 46.7999L56.5916 44.9118C56.2559 44.5918 56.2559 44.048 56.5916 43.728C56.9278 43.408 57.4559 43.408 57.7759 43.728L59.6634 45.6162C59.9997 45.9362 59.9997 46.4799 59.6634 46.7999C59.5034 46.9599 59.2959 47.0399 59.0716 47.0399Z" fill="white"/>
<path d="M61.744 47.0399C61.5365 47.0399 61.3121 46.9599 61.1521 46.7999C60.8165 46.4799 60.8165 45.9362 61.1521 45.6162L63.0402 43.728C63.3765 43.408 63.904 43.408 64.224 43.728C64.5602 44.048 64.5602 44.5918 64.224 44.9118L62.3365 46.7999C62.1765 46.9599 61.9684 47.0399 61.744 47.0399Z" fill="white"/>
<path d="M63.6321 47.0399C63.424 47.0399 63.2002 46.9599 63.0402 46.7999L61.1521 44.9118C60.8165 44.5918 60.8165 44.048 61.1521 43.728C61.4884 43.408 62.0165 43.408 62.3365 43.728L64.224 45.6162C64.5602 45.9362 64.5602 46.4799 64.224 46.7999C64.064 46.9599 63.8565 47.0399 63.6321 47.0399Z" fill="white"/>
<path d="M46.4481 8.91187H4.44805C3.05617 8.91187 1.91992 10.0481 1.91992 11.4237V77.4881C1.91992 78.88 3.05617 80 4.44805 80H46.4637C47.8562 80 48.9918 78.8637 48.9918 77.4881V11.4237C48.9762 10.0319 47.8399 8.91187 46.4481 8.91187Z" fill="#42E26F"/>
<path d="M21.6475 45.9519H29.2475V51.3763H21.6475V45.9519Z" fill="#001419"/>
<path d="M34.4639 45.9519H42.4964V51.3763H34.4639V45.9519Z" fill="#001419"/>
<path d="M8.39941 45.9519H16.4313V51.3763H8.39941V45.9519Z" fill="#001419"/>
<path d="M21.4229 56.8H29.4554V62.2238H21.4229V56.8Z" fill="#001419"/>
<path d="M34.4639 56.8H42.4964V62.2238H34.4639V56.8Z" fill="#001419"/>
<path d="M8.39941 56.8H16.4313V62.2238H8.39941V56.8Z" fill="#001419"/>
<path d="M21.4229 67.6321H29.4554V73.0565H21.4229V67.6321Z" fill="#001419"/>
<path d="M34.4639 67.6321H42.4964V73.0565H34.4639V67.6321Z" fill="#001419"/>
<path d="M8.39941 67.6321H16.4313V73.0565H8.39941V67.6321Z" fill="#001419"/>
<path d="M8.22363 24.2881H42.6561V40.0637H8.22363V24.2881Z" fill="white"/>
<path d="M36.7037 0H14.1919C13.7281 0 13.3438 0.368125 13.3438 0.831875V19.2C13.3438 19.6638 13.7281 20.0319 14.1919 20.0319H36.7037C37.1681 20.0319 37.5519 19.6638 37.5519 19.2V0.831875C37.5362 0.368125 37.1681 0 36.7037 0Z" fill="#001419"/>
<path d="M31.3762 9.42376H19.52C19.0562 9.42376 18.6719 9.05626 18.6719 8.59188C18.6719 8.12813 19.0562 7.76001 19.52 7.76001H31.3919C31.8562 7.76001 32.24 8.12813 32.24 8.59188C32.24 9.05626 31.84 9.42376 31.3762 9.42376Z" fill="#D9DCE1"/>
<path d="M31.3762 14.8801H19.52C19.0562 14.8801 18.6719 14.5119 18.6719 14.0482C18.6719 13.5838 19.0562 13.2163 19.52 13.2163H31.3919C31.8562 13.2163 32.24 13.5838 32.24 14.0482C32.2238 14.5119 31.84 14.8801 31.3762 14.8801Z" fill="#D9DCE1"/>
<path d="M39.3919 20.0482H11.5037C11.04 20.0482 10.6562 19.68 10.6562 19.2163C10.6562 18.7519 11.04 18.3838 11.5037 18.3838H39.4081C39.8719 18.3838 40.2562 18.7519 40.2562 19.2163C40.2562 19.68 39.8562 20.0482 39.3919 20.0482Z" fill="white"/>
</g>
<defs>
<clipPath id="clip0_162_7593">
<rect width="80" height="80" fill="white"/>
</clipPath>
</defs>
</svg>
