<svg width="32" height="32" viewBox="0 0 32 32" fill="none" xmlns="http://www.w3.org/2000/svg">
<path d="M11.9997 22.6667H19.9997V30.6667H11.9997V22.6667ZM30.6663 29.3333C30.6663 29.687 30.5259 30.0261 30.2758 30.2762C30.0258 30.5262 29.6866 30.6667 29.333 30.6667H22.6663V21.3333C22.6663 20.9797 22.5259 20.6406 22.2758 20.3905C22.0258 20.1405 21.6866 20 21.333 20H10.6663C10.3127 20 9.97358 20.1405 9.72353 20.3905C9.47348 20.6406 9.33301 20.9797 9.33301 21.3333V30.6667H2.66634C2.31272 30.6667 1.97358 30.5262 1.72353 30.2762C1.47348 30.0261 1.33301 29.687 1.33301 29.3333C1.33301 28.9797 1.47348 28.6406 1.72353 28.3905C1.97358 28.1405 2.31272 28 2.66634 28H3.99967V2.66668C3.99967 2.31305 4.14015 1.97392 4.3902 1.72387C4.64025 1.47382 4.97939 1.33334 5.33301 1.33334H26.6663C27.02 1.33334 27.3591 1.47382 27.6092 1.72387C27.8592 1.97392 27.9997 2.31305 27.9997 2.66668V28H29.333C29.6866 28 30.0258 28.1405 30.2758 28.3905C30.5259 28.6406 30.6663 28.9797 30.6663 29.3333ZM11.9997 13.3333C11.9997 12.9797 11.8592 12.6406 11.6091 12.3905C11.3591 12.1405 11.02 12 10.6663 12C10.3127 12 9.97358 12.1405 9.72353 12.3905C9.47348 12.6406 9.33301 12.9797 9.33301 13.3333V14.6667C9.33301 15.0203 9.47348 15.3594 9.72353 15.6095C9.97358 15.8595 10.3127 16 10.6663 16C11.02 16 11.3591 15.8595 11.6091 15.6095C11.8592 15.3594 11.9997 15.0203 11.9997 14.6667V13.3333ZM11.9997 6.66668C11.9997 6.31306 11.8592 5.97392 11.6091 5.72387C11.3591 5.47382 11.02 5.33334 10.6663 5.33334C10.3127 5.33334 9.97358 5.47382 9.72353 5.72387C9.47348 5.97392 9.33301 6.31306 9.33301 6.66668V8.00001C9.33301 8.35363 9.47348 8.69277 9.72353 8.94282C9.97358 9.19287 10.3127 9.33334 10.6663 9.33334C11.02 9.33334 11.3591 9.19287 11.6091 8.94282C11.8592 8.69277 11.9997 8.35363 11.9997 8.00001V6.66668ZM17.333 13.3333C17.333 12.9797 17.1925 12.6406 16.9425 12.3905C16.6924 12.1405 16.3533 12 15.9997 12C15.6461 12 15.3069 12.1405 15.0569 12.3905C14.8068 12.6406 14.6663 12.9797 14.6663 13.3333V14.6667C14.6663 15.0203 14.8068 15.3594 15.0569 15.6095C15.3069 15.8595 15.6461 16 15.9997 16C16.3533 16 16.6924 15.8595 16.9425 15.6095C17.1925 15.3594 17.333 15.0203 17.333 14.6667V13.3333ZM17.333 6.66668C17.333 6.31306 17.1925 5.97392 16.9425 5.72387C16.6924 5.47382 16.3533 5.33334 15.9997 5.33334C15.6461 5.33334 15.3069 5.47382 15.0569 5.72387C14.8068 5.97392 14.6663 6.31306 14.6663 6.66668V8.00001C14.6663 8.35363 14.8068 8.69277 15.0569 8.94282C15.3069 9.19287 15.6461 9.33334 15.9997 9.33334C16.3533 9.33334 16.6924 9.19287 16.9425 8.94282C17.1925 8.69277 17.333 8.35363 17.333 8.00001V6.66668ZM22.6663 13.3333C22.6663 12.9797 22.5259 12.6406 22.2758 12.3905C22.0258 12.1405 21.6866 12 21.333 12C20.9794 12 20.6402 12.1405 20.3902 12.3905C20.1402 12.6406 19.9997 12.9797 19.9997 13.3333V14.6667C19.9997 15.0203 20.1402 15.3594 20.3902 15.6095C20.6402 15.8595 20.9794 16 21.333 16C21.6866 16 22.0258 15.8595 22.2758 15.6095C22.5259 15.3594 22.6663 15.0203 22.6663 14.6667V13.3333ZM22.6663 6.66668C22.6663 6.31306 22.5259 5.97392 22.2758 5.72387C22.0258 5.47382 21.6866 5.33334 21.333 5.33334C20.9794 5.33334 20.6402 5.47382 20.3902 5.72387C20.1402 5.97392 19.9997 6.31306 19.9997 6.66668V8.00001C19.9997 8.35363 20.1402 8.69277 20.3902 8.94282C20.6402 9.19287 20.9794 9.33334 21.333 9.33334C21.6866 9.33334 22.0258 9.19287 22.2758 8.94282C22.5259 8.69277 22.6663 8.35363 22.6663 8.00001V6.66668Z" fill="#42E26F"/>
</svg>
