<svg width="32" height="30" viewBox="0 0 32 30" fill="none" xmlns="http://www.w3.org/2000/svg">
<path d="M31.4629 13.567L26.6131 8.7172V3.11492C26.6131 2.10195 25.7922 1.28101 24.7778 1.28101C23.7657 1.28101 22.9448 2.10195 22.9448 3.11492V5.04894L19.3338 1.43778C17.5484 -0.346575 14.4443 -0.34341 12.6631 1.44101L0.536877 13.567C-0.178959 14.2842 -0.178959 15.4448 0.536877 16.1609C1.25304 16.878 2.41587 16.878 3.13177 16.1609L15.2568 4.03468C15.6518 3.64175 16.348 3.64175 16.7409 4.03352L28.868 16.1609C29.2276 16.5195 29.6965 16.6979 30.1652 16.6979C30.6348 16.6979 31.1044 16.5193 31.4629 16.1609C32.179 15.4448 32.179 14.2843 31.4629 13.567Z" fill="#42E26F"/>
<path d="M16.6367 7.51585C16.2844 7.16374 15.714 7.16374 15.3627 7.51585L4.69649 18.1789C4.52809 18.3473 4.43262 18.5771 4.43262 18.8169V26.5942C4.43262 28.4192 5.91235 29.8988 7.73727 29.8988H13.0181V21.7205H18.9801V29.8988H24.2611C26.0859 29.8988 27.5657 28.4192 27.5657 26.5942V18.8169C27.5657 18.5771 27.471 18.3473 27.3018 18.1789L16.6367 7.51585Z" fill="#42E26F"/>
</svg>
