<svg width="30" height="26" viewBox="0 0 30 26" fill="none" xmlns="http://www.w3.org/2000/svg">
<path d="M16.9328 12.7636C17.0337 12.7906 17.1334 12.8204 17.232 12.8529L15.0692 20.9246L14.9836 20.9244C14.7968 20.9244 14.6096 20.9257 14.4221 20.9281L16.6291 12.6914C16.7307 12.7126 16.8319 12.7366 16.9328 12.7636ZM20.5292 14.575C20.5579 14.6163 20.6052 14.6358 20.6546 14.6267C20.7041 14.6176 20.7412 14.5825 20.7533 14.5337C21.3352 12.1746 21.5396 10.0103 21.3663 8.0407C21.1894 6.02982 20.6177 4.22138 19.6514 2.61551C16.4092 4.41038 14.1051 7.66726 12.7393 12.3861C12.7253 12.4344 12.74 12.4834 12.7782 12.516C12.8164 12.5487 12.8672 12.5554 12.9127 12.534C14.1733 11.9396 15.6429 11.771 17.0946 12.16C18.5463 12.5489 19.7347 13.4298 20.5292 14.575ZM21.9889 7.98695C22.1687 10.0311 21.9567 12.2718 21.3529 14.709C21.3411 14.757 21.3568 14.8045 21.3951 14.8358C21.4334 14.8671 21.4831 14.8731 21.5278 14.8519C22.7913 14.2526 24.2659 14.0815 25.7226 14.4718C26.9996 14.814 28.0731 15.5366 28.8539 16.4849C28.8859 16.5239 28.935 16.5394 28.9836 16.526C29.0323 16.5126 29.0664 16.4742 29.074 16.4243C30.0151 10.2355 26.2844 4.19426 20.2088 2.33095C21.2114 4.00988 21.8049 5.89526 21.9889 7.98695ZM4.74806 10.0258C5.89838 9.59488 7.18937 9.50588 8.46637 9.84801C9.92313 10.2383 11.1147 11.1239 11.9092 12.2748C11.9373 12.3155 11.9834 12.3351 12.0322 12.3272C12.081 12.3193 12.1184 12.2859 12.1321 12.2384C13.5394 7.35882 15.9333 3.97632 19.3136 2.09101C13.1198 0.665884 6.86737 4.03251 4.58775 9.86326C4.56938 9.9102 4.57981 9.96057 4.61513 9.99651C4.65056 10.0324 4.70081 10.0436 4.74806 10.0258ZM20.0643 2.28238L20.4444 0.863697C20.4889 0.697197 20.39 0.526134 20.2235 0.481634C20.057 0.437134 19.8859 0.536072 19.8414 0.702572L19.4613 2.12126L19.4591 2.13026L20.0612 2.2932C20.0623 2.28963 20.0633 2.28607 20.0643 2.28238ZM23.3198 22.4674C20.9153 21.8867 18.0524 21.5494 14.9835 21.5494L14.9017 21.5496L14.4242 23.3314C14.3797 23.4979 14.2087 23.5969 14.0422 23.5524C13.8757 23.5079 13.7768 23.3368 13.8213 23.1703L14.2539 21.5558C11.4612 21.6048 8.86006 21.9329 6.64719 22.4674C4.16263 23.0675 2.16169 23.9318 0.918375 24.9579C0.835625 25.0141 0.78125 25.1089 0.78125 25.2166C0.78125 25.3891 0.921188 25.5291 1.09375 25.5291H28.8732V25.5278C28.9624 25.5277 29.051 25.4895 29.1125 25.4156C29.2224 25.2834 29.2044 25.0872 29.0723 24.9774C27.8307 23.9428 25.82 23.0713 23.3198 22.4674Z" fill="#42E26F"/>
</svg>
