<svg width="78" height="79" viewBox="0 0 78 79" fill="none" xmlns="http://www.w3.org/2000/svg">
<path d="M78.0005 45.7099C78.0005 50.0319 74.4985 53.5436 70.1668 53.5436C65.8447 53.5436 62.333 50.0416 62.333 45.7099C62.333 41.3878 65.8351 37.8761 70.1668 37.8761C74.4985 37.8761 78.0005 41.3878 78.0005 45.7099Z" fill="#001419"/>
<path d="M15.6579 45.7099C15.6579 50.0319 12.1558 53.5436 7.82412 53.5436C3.50204 53.5436 0 50.0319 0 45.7099C0 41.3878 3.50204 37.8761 7.83377 37.8761C12.1558 37.8761 15.6579 41.3878 15.6579 45.7099Z" fill="#001419"/>
<path d="M17.6454 3.13538H15.3203V28.9231H17.6454V3.13538Z" fill="#FFD533"/>
<path d="M22.6714 6.28052C22.6714 9.75362 19.8543 12.561 16.3909 12.561C12.9178 12.561 10.1104 9.75362 10.1104 6.28052C10.1104 2.81707 12.9178 0 16.3909 0C19.8543 0 22.6714 2.81707 22.6714 6.28052Z" fill="#FFD533"/>
<path d="M62.8739 3.13538H60.5488V28.9231H62.8739V3.13538Z" fill="#001419"/>
<path d="M67.8999 6.28052C67.8999 9.75362 65.0828 12.561 61.6194 12.561C58.1463 12.561 55.3389 9.75362 55.3389 6.28052C55.3389 2.81707 58.1559 0 61.6194 0C65.0828 0 67.8999 2.81707 67.8999 6.28052Z" fill="#001419"/>
<path d="M70.1761 72.636C70.1761 75.9644 67.4748 78.6657 64.1464 78.6657H13.8637C10.5353 78.6657 7.83398 75.9644 7.83398 72.636V22.3629C7.83398 19.0346 10.5353 16.3333 13.8637 16.3333H64.1368C67.4652 16.3333 70.1665 19.0346 70.1665 22.3629V72.636H70.1761Z" fill="#42E26F"/>
<g opacity="0.2">
<path d="M70.1761 22.3629C70.1761 19.0346 67.4748 16.3333 64.1464 16.3333H63.9535L7.83398 72.4527V72.6457C7.83398 75.9741 10.5353 78.6754 13.8637 78.6754H27.5052L70.1665 36.0141V22.3629H70.1761Z" fill="white"/>
<path d="M7.83398 25.8843V63.249L54.7498 16.3333H17.385L7.83398 25.8843Z" fill="white"/>
</g>
<path d="M31.6482 47.8998C31.6482 48.7392 30.9729 49.4145 30.1336 49.4145H17.5147C16.6753 49.4145 16 48.7392 16 47.8998V35.2809C16 34.4416 16.6753 33.7662 17.5147 33.7662H30.1336C30.9729 33.7662 31.6482 34.4416 31.6482 35.2809V47.8998Z" fill="#001419"/>
<path d="M61.6853 48.0639C61.6853 48.9032 61.01 49.5785 60.1707 49.5785H47.5518C46.7124 49.5785 46.0371 48.9032 46.0371 48.0639V35.445C46.0371 34.6056 46.7124 33.9303 47.5518 33.9303H60.1707C61.01 33.9303 61.6853 34.6056 61.6853 35.445V48.0639Z" fill="#FFD533"/>
<path d="M58.9461 61.7922C58.9461 63.249 57.7595 64.4356 56.3027 64.4356H21.6971C20.2404 64.4356 19.0537 63.249 19.0537 61.7922C19.0537 60.3354 20.2404 59.1488 21.6971 59.1488H56.3027C57.7691 59.1488 58.9461 60.3354 58.9461 61.7922Z" fill="#001419"/>
</svg>
