<svg width="80" height="80" viewBox="0 0 80 80" fill="none" xmlns="http://www.w3.org/2000/svg">
<g clip-path="url(#clip0_139_2273)">
<path d="M49.8666 45.8666L39.9759 42.5661L30.0853 45.8666L30.168 35.4402L23.9727 27.0535L33.9144 23.9102L39.9761 15.4263L46.0378 23.9102L55.9795 27.0535L49.7842 35.4402L49.8666 45.8666Z" fill="#42E26F"/>
<path d="M42.3516 0.0710449H37.6641V6.78339H42.3516V0.0710449Z" fill="#001419"/>
<path d="M72.6598 28.2701H65.9473V32.9576H72.6598V28.2701Z" fill="#D9EFFD"/>
<path d="M14.0688 28.2701H7.35645V32.9576H14.0688V28.2701Z" fill="#001419"/>
<path d="M57.7226 12.2509L61.0371 15.5654L66.5657 10.0368L63.2512 6.72226L57.7226 12.2509Z" fill="#D9EFFD"/>
<path d="M13.4186 10.0058L18.9473 15.5344L22.2618 12.2199L16.7332 6.69125L13.4186 10.0058Z" fill="#001419"/>
<path d="M55.9798 27.0536L46.0383 23.9102L39.9766 15.4263V42.5661L49.867 45.8666L49.7845 35.4402L55.9798 27.0536Z" fill="#42E26F"/>
<path d="M29.63 79.9285H0V77.5848C0 70.6373 5.65219 64.9851 12.5997 64.9851H17.0303C23.9778 64.9851 29.63 70.6373 29.63 77.5848V79.9285Z" fill="#42E26F"/>
<path d="M14.7994 69.6728C9.83379 69.6728 5.79395 65.633 5.79395 60.6673C5.79395 55.7017 9.83363 51.6619 14.7994 51.6619C19.7652 51.6619 23.8049 55.7017 23.8049 60.6673C23.8049 65.633 19.765 69.6728 14.7994 69.6728Z" fill="#FFD533"/>
<path d="M80.0001 79.9285H50.3701V77.5848C50.3701 70.6373 56.0223 64.9851 62.9698 64.9851H67.4004C74.3479 64.9851 80.0001 70.6373 80.0001 77.5848V79.9285Z" fill="#265185"/>
<path d="M65.1695 69.6728C60.2039 69.6728 56.1641 65.633 56.1641 60.6673C56.1641 55.7017 60.2038 51.6619 65.1695 51.6619C70.1353 51.6619 74.175 55.7017 74.175 60.6673C74.175 65.633 70.1352 69.6728 65.1695 69.6728Z" fill="#FFDFCF"/>
<path d="M80.0001 79.9285H50.3701V77.5848C50.3701 70.6373 56.0223 64.9851 62.9698 64.9851H67.4004C74.3479 64.9851 80.0001 70.6373 80.0001 77.5848V79.9285Z" fill="#42E26F"/>
<path d="M65.1695 69.6728C60.2039 69.6728 56.1641 65.633 56.1641 60.6673C56.1641 55.7017 60.2038 51.6619 65.1695 51.6619C70.1353 51.6619 74.175 55.7017 74.175 60.6673C74.175 65.633 70.1352 69.6728 65.1695 69.6728Z" fill="#FFD533"/>
<path d="M54.7989 79.9285H25.1689V77.5848C25.1689 70.6373 30.8211 64.9851 37.7686 64.9851H42.1993C49.1468 64.9851 54.7989 70.6373 54.7989 77.5848V79.9285Z" fill="#FFD533"/>
<path d="M42.1993 64.9854H39.9619V79.9288H54.7989V77.585C54.7989 70.6375 49.1468 64.9854 42.1993 64.9854Z" fill="#FFCD10"/>
<path d="M39.9684 69.6728C35.0027 69.6728 30.9629 65.633 30.9629 60.6673C30.9629 55.7017 35.0026 51.6619 39.9684 51.6619C44.9341 51.6619 48.9738 55.7017 48.9738 60.6673C48.9738 65.633 44.934 69.6728 39.9684 69.6728Z" fill="#001419"/>
<path d="M39.9688 51.6619V69.6728C44.9344 69.6728 48.9742 65.633 48.9742 60.6673C48.9742 55.7017 44.9344 51.6619 39.9688 51.6619Z" fill="#001419"/>
<path d="M42.3516 0.0710449H40V6.78339H42.3516V0.0710449Z" fill="#001419"/>
<path d="M72.6598 28.2701H65.9473V32.9576H72.6598V28.2701Z" fill="#001419"/>
<path d="M58.4297 12.958L60.33 14.8583C60.7205 15.2489 61.3537 15.2489 61.7442 14.8583L65.8586 10.7439C66.2492 10.3534 66.2492 9.72021 65.8586 9.32969L63.9583 7.42936C63.5678 7.03884 62.9346 7.03884 62.5441 7.42936L58.4297 11.5438C58.0392 11.9343 58.0392 12.5675 58.4297 12.958Z" fill="#001419"/>
</g>
<defs>
<clipPath id="clip0_139_2273">
<rect width="80" height="80" fill="white"/>
</clipPath>
</defs>
</svg>
