<svg width="32" height="30" viewBox="0 0 32 30" fill="none" xmlns="http://www.w3.org/2000/svg">
<path d="M11.2125 26.0022C11.7896 26.5089 12.3853 27.0317 12.9981 27.5737C13.0023 27.5774 13.0066 27.5812 13.0108 27.5849L15.0494 29.3457C15.3225 29.5817 15.6615 29.6996 16.0005 29.6996C16.3395 29.6996 16.6785 29.5816 16.9517 29.3457L18.9898 27.5849C18.9941 27.5812 18.9983 27.5775 19.0024 27.5738C23.0379 24.0049 26.0636 21.2727 28.2526 18.608C30.8092 15.4957 32.0001 12.6817 32.0001 9.75221C32.0001 4.45205 27.8484 0.300354 22.5484 0.300354C20.1663 0.300354 17.8127 1.19733 16.0005 2.75219C14.1878 1.19723 11.8341 0.300354 9.45195 0.300354C4.15179 0.300257 0 4.45205 0 9.75211C0 16.1588 4.46061 20.0748 11.2125 26.0022ZM10.1805 12.0904H14.0601V8.21064H17.9398V12.0904H21.8195V15.97H17.9398V19.8495H14.0601V15.97H10.1805V12.0904Z" fill="#42E26F"/>
</svg>
