<svg width="32" height="32" viewBox="0 0 32 32" fill="none" xmlns="http://www.w3.org/2000/svg">
<path d="M9.00033 7.33333C8.26433 7.33333 7.66699 6.736 7.66699 6V1.33333C7.66699 0.597333 8.26433 0 9.00033 0C9.73633 0 10.3337 0.597333 10.3337 1.33333V6C10.3337 6.736 9.73633 7.33333 9.00033 7.33333Z" fill="#42E26F"/>
<path d="M15.3333 7.33333C14.5973 7.33333 14 6.736 14 6V1.33333C14 0.597333 14.5973 0 15.3333 0C16.0693 0 16.6667 0.597333 16.6667 1.33333V6C16.6667 6.736 16.0693 7.33333 15.3333 7.33333Z" fill="#42E26F"/>
<path d="M21.6663 7.33333C20.9303 7.33333 20.333 6.736 20.333 6V1.33333C20.333 0.597333 20.9303 0 21.6663 0C22.4023 0 22.9997 0.597333 22.9997 1.33333V6C22.9997 6.736 22.4023 7.33333 21.6663 7.33333Z" fill="#42E26F"/>
<path d="M24.3337 3H6.33366C4.31099 3 2.66699 4.644 2.66699 6.66667V28.3333C2.66699 30.356 4.31099 32 6.33366 32H24.3337C26.3563 32 28.0003 30.356 28.0003 28.3333V6.66667C28.0003 4.644 26.3563 3 24.3337 3ZM9.33366 10.6667H16.0003C16.7363 10.6667 17.3337 11.264 17.3337 12C17.3337 12.736 16.7363 13.3333 16.0003 13.3333H9.33366C8.59766 13.3333 8.00033 12.736 8.00033 12C8.00033 11.264 8.59766 10.6667 9.33366 10.6667ZM22.667 24H9.33366C8.59766 24 8.00033 23.4027 8.00033 22.6667C8.00033 21.9307 8.59766 21.3333 9.33366 21.3333H22.667C23.403 21.3333 24.0003 21.9307 24.0003 22.6667C24.0003 23.4027 23.403 24 22.667 24ZM22.667 18.6667H9.33366C8.59766 18.6667 8.00033 18.0693 8.00033 17.3333C8.00033 16.5973 8.59766 16 9.33366 16H22.667C23.403 16 24.0003 16.5973 24.0003 17.3333C24.0003 18.0693 23.403 18.6667 22.667 18.6667Z" fill="#42E26F"/>
</svg>
