<svg width="24" height="24" viewBox="0 0 24 24" fill="none" xmlns="http://www.w3.org/2000/svg">
<path d="M9 0C6.8027 0 5 1.80273 5 4C5 4.73066 5.2136 5.40837 5.5605 6H1C0.4477 6.00006 0.0001 6.44774 0 7V11C0.0001 11.5523 0.4477 11.9999 1 12H2H9.5508H11.6992H14.2988H15.3535H22H23C23.5523 11.9999 23.9999 11.5523 24 11V7C23.9999 6.44774 23.5523 6.00006 23 6H18.4394C18.7863 5.40837 19 4.73068 19 4C19 1.80273 17.1973 0 15 0C13.8029 0 12.7352 0.5462 12 1.38867C11.2649 0.5462 10.1972 0 9 0ZM9 2C10.1165 2 11 2.88357 11 4V6H9C7.8835 6 7 5.11643 7 4C7 2.88357 7.8835 2 9 2ZM15 2C16.1165 2 17 2.88357 17 4C17 5.11638 16.1164 6 15 6H13V4C13 2.88357 13.8835 2 15 2ZM2 14V23C2.0001 23.5523 2.4477 23.9999 3 24H11V22.7793V14H9.7793H2ZM13 14V22.5508V24H21C21.5523 23.9999 21.9999 23.5523 22 23V14H15.4082H14.2988H13Z" fill="#42E26F"/>
</svg>
