<svg width="30" height="30" viewBox="0 0 30 30" fill="none" xmlns="http://www.w3.org/2000/svg">
<path d="M15.0007 0.333344C12.0999 0.333344 9.26422 1.19353 6.85229 2.80512C4.44037 4.41672 2.56051 6.70734 1.45042 9.38732C0.340339 12.0673 0.0498903 15.0163 0.615807 17.8613C1.18172 20.7064 2.57859 23.3197 4.62976 25.3709C6.68093 27.4221 9.29428 28.8189 12.1393 29.3849C14.9844 29.9508 17.9334 29.6603 20.6133 28.5502C23.2933 27.4402 25.584 25.5603 27.1955 23.1484C28.8071 20.7365 29.6673 17.9008 29.6673 15C29.6627 11.1116 28.116 7.38372 25.3665 4.63418C22.617 1.88464 18.8891 0.337931 15.0007 0.333344ZM19.9433 19.9427C19.6933 20.1926 19.3542 20.3331 19.0007 20.3331C18.6471 20.3331 18.308 20.1926 18.058 19.9427L14.058 15.9427C13.8079 15.6927 13.6674 15.3536 13.6673 15V7.00001C13.6673 6.64639 13.8078 6.30725 14.0578 6.0572C14.3079 5.80715 14.647 5.66668 15.0007 5.66668C15.3543 5.66668 15.6934 5.80715 15.9435 6.0572C16.1935 6.30725 16.334 6.64639 16.334 7.00001V14.448L19.9433 18.0573C20.1933 18.3074 20.3337 18.6465 20.3337 19C20.3337 19.3536 20.1933 19.6926 19.9433 19.9427Z" fill="#42E26F"/>
</svg>
