<svg width="30" height="30" viewBox="0 0 30 30" fill="none" xmlns="http://www.w3.org/2000/svg">
<path d="M29.1266 5.33226C29.1248 5.33226 29.1229 5.33203 29.1211 5.33203H21.1523V4.45312C21.1523 2.99927 19.9695 1.81641 18.5156 1.81641H11.4844C10.0305 1.81641 8.84766 2.99927 8.84766 4.45312V5.33203H0.878906C0.389557 5.33203 0 5.73303 0 6.21094V25.5469C0 27.0007 1.18286 28.1836 2.63672 28.1836H27.3633C28.8171 28.1836 30 27.0007 30 25.5469V6.22948C30 6.22833 30 6.22719 30 6.22604C29.9664 5.6488 29.6114 5.33546 29.1266 5.33226ZM10.6055 4.45312C10.6055 3.96858 10.9998 3.57422 11.4844 3.57422H18.5156C19.0002 3.57422 19.3945 3.96858 19.3945 4.45312V5.33203H10.6055V4.45312ZM27.9016 7.08984L25.1722 15.2779C25.0525 15.6374 24.7174 15.8789 24.3386 15.8789H19.3945V15C19.3945 14.5145 19.0011 14.1211 18.5156 14.1211H11.4844C10.9989 14.1211 10.6055 14.5145 10.6055 15V15.8789H5.66139C5.28259 15.8789 4.94751 15.6374 4.8278 15.2779L2.09839 7.08984H27.9016ZM17.6367 15.8789V17.6367H12.3633V15.8789H17.6367ZM28.2422 25.5469C28.2422 26.0314 27.8478 26.4258 27.3633 26.4258H2.63672C2.15218 26.4258 1.75781 26.0314 1.75781 25.5469V11.627L3.16017 15.8338C3.51952 16.9123 4.52477 17.6367 5.66139 17.6367H10.6055V18.5156C10.6055 19.0011 10.9989 19.3945 11.4844 19.3945H18.5156C19.0011 19.3945 19.3945 19.0011 19.3945 18.5156V17.6367H24.3386C25.4752 17.6367 26.4805 16.9123 26.8398 15.8338L28.2422 11.627V25.5469Z" fill="#001419"/>
</svg>
