<svg width="31" height="30" viewBox="0 0 31 30" fill="none" xmlns="http://www.w3.org/2000/svg">
<path d="M26.7503 15C26.8514 14.5377 27.0391 14.0987 27.3035 13.7062C27.6037 13.3183 27.8197 12.8719 27.9375 12.3957C28.0554 11.9194 28.0725 11.4239 27.9878 10.9406C27.7686 10.4888 27.4566 10.0883 27.0722 9.7652C26.6877 9.44212 26.2394 9.20374 25.7566 9.06563C25.3396 8.9226 24.9498 8.71024 24.6035 8.4375C24.4261 8.01522 24.3276 7.56402 24.3128 7.10625C24.3286 6.60736 24.2391 6.11074 24.0501 5.64876C23.8611 5.18678 23.5769 4.7698 23.216 4.425C22.7794 4.19033 22.2981 4.05063 21.8036 4.01509C21.3092 3.97954 20.8129 4.04895 20.3472 4.21875C19.9033 4.34829 19.4383 4.3897 18.9785 4.34063C18.6136 4.11193 18.2955 3.81607 18.041 3.46875C17.7565 3.0365 17.3824 2.67048 16.944 2.3955C16.5057 2.12052 16.0133 1.94301 15.5003 1.875C14.9979 1.94258 14.5153 2.11525 14.084 2.38178C13.6527 2.6483 13.2824 3.0027 12.9972 3.42188C12.7427 3.76919 12.4246 4.06505 12.0597 4.29375C11.5999 4.34282 11.1349 4.30142 10.691 4.17187C10.2253 4.00207 9.72894 3.93267 9.23454 3.96821C8.74013 4.00376 8.25883 4.14345 7.82222 4.37813C7.45452 4.7196 7.16333 5.13509 6.96781 5.59723C6.77228 6.05938 6.67687 6.55769 6.68784 7.05938C6.67888 7.53298 6.58026 8.0006 6.39722 8.4375C6.05432 8.72685 5.66427 8.95517 5.24409 9.1125C4.76127 9.25062 4.313 9.489 3.92853 9.81208C3.54407 10.1352 3.23205 10.5357 3.01284 10.9875C2.92818 11.4707 2.94533 11.9663 3.06317 12.4425C3.18102 12.9188 3.39697 13.3651 3.69722 13.7531C3.95627 14.1314 4.14374 14.5541 4.25034 15C4.14925 15.4623 3.96157 15.9013 3.69722 16.2937C3.39697 16.6817 3.18102 17.1281 3.06317 17.6043C2.94533 18.0806 2.92818 18.5761 3.01284 19.0594C3.23205 19.5112 3.54407 19.9117 3.92853 20.2348C4.313 20.5579 4.76127 20.7963 5.24409 20.9344C5.66427 21.0917 6.05432 21.32 6.39722 21.6094C6.57458 22.0317 6.67308 22.4828 6.68784 22.9406C6.67209 23.4395 6.76162 23.9361 6.95061 24.3981C7.1396 24.8601 7.42381 25.2771 7.78472 25.6219C8.22133 25.8565 8.70263 25.9962 9.19704 26.0318C9.69144 26.0673 10.1878 25.9979 10.6535 25.8281C11.0974 25.6986 11.5624 25.6572 12.0222 25.7063C12.3871 25.9349 12.7052 26.2308 12.9597 26.5781C13.249 27.0017 13.6252 27.3587 14.0633 27.6254C14.5014 27.8922 14.9913 28.0625 15.5003 28.125C16.0028 28.0574 16.4854 27.8848 16.9167 27.6182C17.348 27.3517 17.7183 26.9973 18.0035 26.5781C18.258 26.2308 18.5761 25.9349 18.941 25.7063C19.4008 25.6572 19.8658 25.6986 20.3097 25.8281C20.7754 25.9979 21.2717 26.0673 21.7661 26.0318C22.2606 25.9962 22.7419 25.8565 23.1785 25.6219C23.5394 25.2771 23.8236 24.8601 24.0126 24.3981C24.2016 23.9361 24.2911 23.4395 24.2753 22.9406C24.2901 22.4828 24.3886 22.0317 24.566 21.6094C24.9089 21.32 25.2989 21.0917 25.7191 20.9344C26.2019 20.7963 26.6502 20.5579 27.0347 20.2348C27.4191 19.9117 27.7311 19.5112 27.9503 19.0594C28.035 18.5761 28.0179 18.0806 27.9 17.6043C27.7822 17.1281 27.5662 16.6817 27.266 16.2937C27.0148 15.8985 26.8399 15.4597 26.7503 15ZM25.6722 17.2125C25.8785 17.5875 26.2722 18.2719 26.2066 18.4781C26.141 18.6844 25.4378 19.0219 24.9878 19.2281C24.2648 19.4917 23.6199 19.9335 23.1128 20.5125C22.7109 21.1817 22.4911 21.9445 22.4753 22.725C22.4191 23.1937 22.3347 23.9625 22.1378 24.1031C21.941 24.2437 21.2003 24.1031 20.7503 23.9906C19.994 23.7707 19.1943 23.7449 18.4253 23.9156C17.7116 24.217 17.0882 24.6983 16.616 25.3125C16.2785 25.6875 15.7628 26.25 15.5003 26.25C15.2378 26.25 14.7222 25.6875 14.3847 25.3125C13.9203 24.7021 13.307 24.2211 12.6035 23.9156C12.3297 23.8339 12.0454 23.7928 11.7597 23.7937C11.2609 23.8126 10.7649 23.8785 10.2785 23.9906C9.82847 24.0844 9.06909 24.2344 8.89097 24.1031C8.71284 23.9719 8.60972 23.1656 8.55347 22.725C8.53773 21.9445 8.31794 21.1817 7.91597 20.5125C7.40895 19.9335 6.76405 19.4917 6.04097 19.2281C5.59097 19.0219 4.90659 18.7125 4.82222 18.4781C4.73784 18.2437 5.15034 17.5875 5.35659 17.2125C5.79594 16.5519 6.06045 15.7907 6.12534 15C6.05203 14.2068 5.77778 13.4453 5.32847 12.7875C5.12222 12.4125 4.72847 11.7281 4.79409 11.5219C4.85972 11.3156 5.56284 10.9781 6.01284 10.7719C6.73593 10.5083 7.38082 10.0665 7.88784 9.4875C8.28982 8.81829 8.5096 8.0555 8.52534 7.275C8.58159 6.80625 8.66597 6.0375 8.86284 5.89687C9.05972 5.75625 9.80034 5.89687 10.2503 6.00937C11.0067 6.22933 11.8064 6.25513 12.5753 6.08437C13.2891 5.78299 13.9125 5.30171 14.3847 4.6875C14.7222 4.3125 15.2378 3.75 15.5003 3.75C15.7628 3.75 16.2785 4.3125 16.616 4.6875C17.0804 5.29789 17.6937 5.77886 18.3972 6.08437C19.1662 6.25513 19.9658 6.22933 20.7222 6.00937C21.1705 5.86887 21.6446 5.83043 22.1097 5.89687C22.3066 6.0375 22.391 6.83438 22.4472 7.275C22.463 8.0555 22.6827 8.81829 23.0847 9.4875C23.5917 10.0665 24.2366 10.5083 24.9597 10.7719C25.4097 10.9781 26.0941 11.2875 26.1785 11.5219C26.2628 11.7562 25.8503 12.4594 25.6441 12.7875C25.2047 13.4481 24.9402 14.2093 24.8753 15C24.9487 15.7932 25.2229 16.5547 25.6722 17.2125Z" fill="#001419"/>
<path d="M19.0531 11.5219L14.0937 16.4907L12.4156 14.8032C12.3281 14.7158 12.2244 14.6464 12.1102 14.5991C11.996 14.5518 11.8735 14.5275 11.7499 14.5275C11.6263 14.5275 11.5039 14.5518 11.3897 14.5991C11.2755 14.6464 11.1717 14.7158 11.0843 14.8032C10.9969 14.8906 10.9276 14.9944 10.8802 15.1086C10.8329 15.2228 10.8086 15.3452 10.8086 15.4688C10.8086 15.5924 10.8329 15.7148 10.8802 15.829C10.9276 15.9432 10.9969 16.047 11.0843 16.1344L13.4281 18.4782C13.5152 18.566 13.6189 18.6358 13.7331 18.6834C13.8474 18.731 13.9699 18.7555 14.0937 18.7555C14.2174 18.7555 14.34 18.731 14.4542 18.6834C14.5685 18.6358 14.6722 18.566 14.7593 18.4782L20.3843 12.8532C20.4717 12.7658 20.5411 12.662 20.5884 12.5478C20.6357 12.4336 20.66 12.3112 20.66 12.1876C20.66 12.0639 20.6357 11.9415 20.5884 11.8273C20.5411 11.7131 20.4717 11.6093 20.3843 11.5219C20.2969 11.4345 20.1931 11.3652 20.0789 11.3179C19.9647 11.2706 19.8423 11.2462 19.7187 11.2462C19.5951 11.2462 19.4727 11.2706 19.3584 11.3179C19.2442 11.3652 19.1405 11.4345 19.0531 11.5219Z" fill="#001419"/>
</svg>
