<svg width="80" height="80" viewBox="0 0 80 80" fill="none" xmlns="http://www.w3.org/2000/svg">
<g clip-path="url(#clip0_162_7553)">
<path d="M7.7451 69.782C5.72047 69.782 4.0791 68.1406 4.0791 66.116V4.968C4.0791 2.94337 5.72047 1.302 7.7451 1.302H9.57367H33.9199C38.1055 1.302 42.1198 2.96478 45.0795 5.92446L55.5841 16.4292C58.5437 19.3888 60.2061 23.4026 60.2061 27.5879V66.1162C60.2061 68.1408 58.5647 69.7822 56.5401 69.7822H7.7451V69.782Z" fill="#001419"/>
<path d="M60.2062 27.5884V29.9126C60.2062 25.0193 56.2383 21.0513 51.3449 21.0513H44.123C42.0984 21.0513 40.457 19.4099 40.457 17.3853V10.1636C40.457 5.27021 36.4891 1.30225 31.5957 1.30225H33.9199C38.1055 1.30225 42.1198 2.96502 45.0795 5.9247L55.5838 16.429C58.5435 19.3887 60.2062 23.4028 60.2062 27.5884Z" fill="#001419"/>
<path d="M79.9997 63.0993V31.9534C79.9997 30.2782 78.6417 28.9202 76.9665 28.9202H34.9375C33.2624 28.9202 31.9043 30.2782 31.9043 31.9534V63.0993C31.9043 64.7747 33.2624 66.1326 34.9375 66.1326H76.9663C78.6417 66.1327 79.9997 64.7747 79.9997 63.0993Z" fill="#2BBA53"/>
<path d="M75.959 56.3832V38.6692C72.8063 38.6692 70.2505 36.1134 70.2505 32.9607H41.6538C41.6538 36.1134 39.098 38.6692 35.9453 38.6692V56.3832C39.098 56.3832 41.6538 58.939 41.6538 62.0916H70.2507C70.2505 58.939 72.8063 56.3832 75.959 56.3832Z" fill="#42E26F"/>
<path d="M72.3971 48.7336H69.1945C68.5277 48.7336 67.9873 48.1931 67.9873 47.5263C67.9873 46.8596 68.5277 46.3191 69.1945 46.3191H72.3971C73.064 46.3191 73.6044 46.8596 73.6044 47.5263C73.6044 48.1931 73.0638 48.7336 72.3971 48.7336Z" fill="#FCFCFC"/>
<path d="M64.3944 41.6725V69.9864C64.3944 74.7976 60.4942 78.6978 55.6845 78.6978H8.71147C3.9002 78.6978 0 74.7976 0 69.9864V32.8612C0 28.0516 3.9002 24.1514 8.71147 24.1514H29.9091C33.0414 24.1514 35.9324 25.8335 37.4809 28.5554C39.0294 31.2789 41.9203 32.961 45.0527 32.961H55.6845C60.4942 32.961 64.3944 36.8612 64.3944 41.6725Z" fill="#FFD533"/>
<path d="M36.4663 38.1177H10.5635C7.93047 38.1177 5.7959 40.2522 5.7959 42.8853V55.1778C5.7959 57.8109 7.93047 59.9454 10.5635 59.9454H36.4663C39.0994 59.9454 41.234 57.8109 41.234 55.1778V42.8853C41.234 40.2522 39.0994 38.1177 36.4663 38.1177Z" fill="white"/>
<path d="M13.7449 78.6978H8.71147C3.9002 78.6978 0 74.7976 0 69.9864V32.8612C0 28.0516 3.9002 24.1514 8.71147 24.1514H13.7449C8.9336 24.1514 5.0334 28.1514 5.0334 32.961V70.0862C5.0334 74.8976 8.9336 78.6978 13.7449 78.6978Z" fill="#FFD533"/>
<path d="M34.504 10.2551H9.6467C8.97982 10.2551 8.43945 9.71454 8.43945 9.04782C8.43945 8.3811 8.97982 7.84058 9.6467 7.84058H34.504C35.1709 7.84058 35.7112 8.3811 35.7112 9.04782C35.7112 9.71454 35.1707 10.2551 34.504 10.2551Z" fill="#D9DCE1"/>
<path d="M34.504 16.8627H9.6467C8.97982 16.8627 8.43945 16.3222 8.43945 15.6555C8.43945 14.9888 8.97982 14.4482 9.6467 14.4482H34.504C35.1709 14.4482 35.7112 14.9888 35.7112 15.6555C35.7112 16.3222 35.1707 16.8627 34.504 16.8627Z" fill="#D9DCE1"/>
<path d="M22.8769 43.6194C22.8729 43.6085 22.8686 43.5975 22.8641 43.5866C22.6411 43.0443 22.1186 42.6943 21.5326 42.6943C21.5321 42.6943 21.5314 42.6943 21.5309 42.6943C20.9441 42.695 20.4216 43.0464 20.1996 43.5895C20.1961 43.5985 20.1925 43.6073 20.1891 43.6163L16.3363 53.7319C16.0988 54.355 16.4118 55.0525 17.0347 55.2897C17.6575 55.5269 18.3553 55.2144 18.5927 54.5913L19.256 52.8497H23.7796L24.4356 54.5879C24.6179 55.0713 25.0773 55.3693 25.5652 55.3693C25.7069 55.3693 25.8509 55.3442 25.9913 55.2912C26.6151 55.0559 26.9299 54.3592 26.6944 53.7355L22.8769 43.6194ZM20.1756 50.4352L21.5282 46.8838L22.8684 50.4352H20.1756Z" fill="#001419"/>
<path d="M37.689 53.4668L34.3129 48.6676L37.1809 44.5966C37.5648 44.0516 37.4342 43.2984 36.889 42.9144C36.3435 42.5305 35.5907 42.6612 35.207 43.2061L32.8372 46.5698L30.4713 43.2065C30.0879 42.6613 29.3352 42.5302 28.7894 42.9137C28.2441 43.2973 28.113 44.0505 28.4968 44.5958L31.3604 48.6665L27.9793 53.466C27.5952 54.011 27.7257 54.7642 28.2709 55.1483C28.4823 55.2972 28.7249 55.3686 28.9652 55.3686C29.3446 55.3686 29.7182 55.1903 29.9532 54.8566L32.8362 50.764L35.7148 54.856C35.9498 55.1901 36.3234 55.3686 36.7033 55.3686C36.9431 55.3686 37.1855 55.2973 37.3969 55.1487C37.9416 54.7653 38.0726 54.0123 37.689 53.4668Z" fill="#001419"/>
<path d="M17.2008 43.9016C17.2008 43.2349 16.6604 42.6943 15.9935 42.6943H10.3274C9.66048 42.6943 9.12012 43.2349 9.12012 43.9016C9.12012 44.5683 9.66048 45.1088 10.3274 45.1088H11.9417V54.1617C11.9417 54.8284 12.482 55.3689 13.1489 55.3689C13.8158 55.3689 14.3562 54.8284 14.3562 54.1617V45.1088H15.9935C16.6604 45.1088 17.2008 44.5683 17.2008 43.9016Z" fill="#001419"/>
</g>
<defs>
<clipPath id="clip0_162_7553">
<rect width="80" height="80" fill="white"/>
</clipPath>
</defs>
</svg>
